<svg width="336" height="159" viewBox="0 0 336 159" fill="none" xmlns="http://www.w3.org/2000/svg">
<circle cx="79.051" cy="79.051" r="78.7398" stroke="#34D399" stroke-width="0.622449"/>
<circle cx="79.0511" cy="79.0509" r="71.5816" fill="#020617"/>
<rect x="63.2465" y="44.7121" width="32.1599" height="32.1599" rx="9.85544" fill="#0F172A"/>
<rect x="63.2465" y="44.7121" width="32.1599" height="32.1599" rx="9.85544" stroke="#1E293B" stroke-width="1.03742"/>
<path d="M84.8595 61.484C84.8595 64.942 82.4388 66.6711 79.5617 67.6739C79.4111 67.725 79.2474 67.7225 79.0983 67.667C76.2143 66.6711 73.7937 64.942 73.7937 61.484V56.6427C73.7937 56.4593 73.8666 56.2834 73.9963 56.1537C74.126 56.024 74.3019 55.9511 74.4853 55.9511C75.8685 55.9511 77.5976 55.1212 78.801 54.0699C78.9475 53.9448 79.1339 53.876 79.3266 53.876C79.5193 53.876 79.7057 53.9448 79.8522 54.0699C81.0625 55.1281 82.7846 55.9511 84.1679 55.9511C84.3513 55.9511 84.5272 56.024 84.6569 56.1537C84.7866 56.2834 84.8595 56.4593 84.8595 56.6427V61.484Z" stroke="#34D399" stroke-width="1.03742" stroke-linecap="round" stroke-linejoin="round"/>
<rect x="90.738" y="43.1558" width="6.22449" height="6.22449" rx="3.11225" fill="#34D399"/>
<path d="M47.381 106.919C44.7069 106.919 43.1766 105.574 42.8211 103.549L44.7532 102.73C44.9851 104.091 45.8043 105.033 47.381 105.033C48.5867 105.033 49.1741 104.461 49.1741 103.689C49.1741 101.339 43.1302 103.333 43.1302 99.005C43.1302 96.9646 44.846 95.7898 47.0409 95.7898C49.3287 95.7898 50.8589 96.9955 51.2299 99.0204H49.0195C48.8031 98.263 48.2466 97.6756 47.0409 97.6756C45.8816 97.6756 45.2633 98.2167 45.2633 98.9122C45.2633 101.2 51.2918 99.2369 51.2918 103.596C51.2918 105.652 49.6069 106.919 47.381 106.919ZM56.3681 106.919C54.2659 106.919 52.2873 105.513 52.2873 102.777C52.2873 100.056 54.2659 98.6495 56.3681 98.6495C58.4548 98.6495 60.4334 100.056 60.4334 102.777C60.4334 105.513 58.4548 106.919 56.3681 106.919ZM56.3681 105.095C57.5119 105.095 58.4085 104.276 58.4085 102.777C58.4085 101.293 57.5119 100.473 56.3681 100.473C55.2088 100.473 54.3122 101.293 54.3122 102.777C54.3122 104.276 55.2088 105.095 56.3681 105.095ZM63.2718 106.765L60.3812 98.804H62.4062L64.4002 104.585L66.3942 98.804H68.4037L65.4822 106.765H63.2718ZM69.1467 106.765V98.804H71.0944V106.765H69.1467ZM70.1205 97.9693C69.1776 97.9693 68.8685 97.7839 68.8685 96.8409C68.8685 95.898 69.1776 95.7125 70.1205 95.7125C71.0634 95.7125 71.3726 95.898 71.3726 96.8409C71.3726 97.7839 71.0634 97.9693 70.1205 97.9693ZM77.5353 106.765L75.7113 104.261L73.8719 106.765H71.5842L74.5829 102.699L71.7387 98.804H74.1037L75.7731 101.092L77.458 98.804H79.7303L76.9015 102.653L79.8848 106.765H77.5353Z" fill="#F8FAFC"/>
<path d="M81.5309 106.919C80.5571 106.919 80.248 106.734 80.248 105.636C80.248 104.539 80.5571 104.353 81.5309 104.353C82.5048 104.353 82.8139 104.539 82.8139 105.636C82.8139 106.734 82.5048 106.919 81.5309 106.919Z" fill="#34D399"/>
<path d="M84.1448 106.765V95.9444H86.1852V104.848H91.1625V106.765H84.1448ZM94.6426 106.919C93.1123 106.919 91.9994 106.069 91.9994 104.523C91.9994 103.209 93.0196 102.297 95.0136 101.988L97.1313 101.664C97.1158 100.875 96.5284 100.396 95.6937 100.396C94.8745 100.396 94.1944 100.875 94.1171 101.555L91.9994 102.251C91.8294 100.041 93.6379 98.6495 95.6937 98.6495C97.6414 98.6495 99.0789 99.716 99.0789 101.509V106.765H97.1313V105.868C96.513 106.595 95.601 106.919 94.6426 106.919ZM94.0243 104.431C94.0243 104.987 94.4571 105.265 95.0445 105.265C96.0183 105.265 97.1313 104.492 97.1313 103.287V103.179L95.1836 103.488C94.4571 103.611 94.0243 103.936 94.0243 104.431ZM104.479 106.919C103.521 106.919 102.701 106.579 102.129 105.914V106.765H100.182V95.6353H102.129V99.6387C102.701 98.9895 103.521 98.6495 104.479 98.6495C106.442 98.6495 108.22 100.056 108.22 102.777C108.22 105.513 106.442 106.919 104.479 106.919ZM104.108 105.095C105.267 105.095 106.195 104.276 106.195 102.777C106.195 101.293 105.267 100.473 104.108 100.473C102.949 100.473 102.021 101.293 102.021 102.777C102.021 104.276 102.949 105.095 104.108 105.095ZM112.314 106.919C110.367 106.919 108.914 105.93 108.744 104.492L110.568 103.75C110.722 104.802 111.449 105.234 112.314 105.234C113.025 105.234 113.489 104.91 113.489 104.384C113.489 102.73 108.806 104.492 108.806 101.2C108.806 99.6387 110.212 98.6495 112.036 98.6495C114.015 98.6495 115.267 99.6851 115.437 101.324H113.412C113.288 100.721 112.871 100.334 112.036 100.334C111.31 100.334 110.83 100.628 110.83 101.092C110.83 102.529 115.514 100.767 115.514 104.276C115.514 105.837 114.169 106.919 112.314 106.919Z" fill="white"/>
<circle cx="79.051" cy="79.051" r="65.0459" stroke="#34D399" stroke-width="0.622449"/>
<rect x="207.275" y="9.33643" width="128.224" height="139.429" rx="9.95918" fill="#020617"/>
<mask id="path-9-inside-1_161_377" fill="white">
<path d="M219.724 21.7852H323.051V80.7035H219.724V21.7852Z"/>
</mask>
<path d="M323.051 80.7035V80.0811H219.724V80.7035V81.326H323.051V80.7035Z" fill="#3F3F3F" mask="url(#path-9-inside-1_161_377)"/>
<path d="M220.526 30.7852V24.4237H222.173C222.586 24.4237 222.94 24.5022 223.236 24.659C223.538 24.8159 223.771 25.0366 223.933 25.3213C224.102 25.606 224.186 25.9429 224.186 26.3322V28.868C224.186 29.2573 224.102 29.5971 223.933 29.8876C223.771 30.1723 223.538 30.393 223.236 30.5499C222.94 30.7067 222.586 30.7852 222.173 30.7852H220.526ZM221.31 30.088H222.173C222.557 30.088 222.856 29.9805 223.071 29.7656C223.291 29.5506 223.402 29.2514 223.402 28.868V26.3322C223.402 25.9545 223.291 25.6583 223.071 25.4433C222.856 25.2283 222.557 25.1209 222.173 25.1209H221.31V30.088ZM226.717 30.7852V24.4237H230.377V25.1383H227.493V27.1077H230.072V27.8136H227.493V30.0706H230.377V30.7852H226.717ZM234.616 30.8723C234.233 30.8723 233.899 30.7997 233.614 30.6544C233.335 30.5092 233.118 30.3001 232.961 30.027C232.81 29.7482 232.734 29.4199 232.734 29.0423V26.1666C232.734 25.7832 232.81 25.4549 232.961 25.1819C233.118 24.9088 233.335 24.6997 233.614 24.5544C233.899 24.4092 234.233 24.3366 234.616 24.3366C235 24.3366 235.331 24.4121 235.61 24.5632C235.889 24.7084 236.104 24.9175 236.255 25.1906C236.406 25.4636 236.481 25.789 236.481 26.1666H235.697C235.697 25.8064 235.601 25.5304 235.409 25.3387C235.224 25.1412 234.959 25.0424 234.616 25.0424C234.274 25.0424 234.004 25.1383 233.806 25.33C233.614 25.5217 233.518 25.7977 233.518 26.1579V29.0423C233.518 29.4025 233.614 29.6813 233.806 29.8789C234.004 30.0706 234.274 30.1664 234.616 30.1664C234.959 30.1664 235.224 30.0706 235.409 29.8789C235.601 29.6813 235.697 29.4025 235.697 29.0423H236.481C236.481 29.4141 236.406 29.7394 236.255 30.0183C236.104 30.2913 235.889 30.5034 235.61 30.6544C235.331 30.7997 235 30.8723 234.616 30.8723ZM239.004 30.7852V30.0706H240.302V25.1383H239.004V24.4237H242.402V25.1383H241.104V30.0706H242.402V30.7852H239.004ZM246.859 30.8723C246.441 30.8723 246.081 30.8026 245.779 30.6632C245.483 30.5237 245.253 30.3233 245.09 30.0619C244.928 29.8004 244.844 29.4896 244.838 29.1294H245.622C245.622 29.449 245.73 29.7017 245.944 29.8876C246.165 30.0735 246.47 30.1664 246.859 30.1664C247.225 30.1664 247.51 30.0764 247.713 29.8963C247.923 29.7162 248.027 29.4664 248.027 29.1469C248.027 28.8913 247.957 28.6676 247.818 28.4759C247.684 28.2842 247.49 28.1505 247.234 28.075L246.371 27.8049C245.936 27.6713 245.599 27.4476 245.361 27.1339C245.128 26.8202 245.012 26.4513 245.012 26.0272C245.012 25.6844 245.088 25.3881 245.239 25.1383C245.395 24.8827 245.613 24.6852 245.892 24.5457C246.171 24.4005 246.499 24.3279 246.877 24.3279C247.435 24.3279 247.882 24.4847 248.219 24.7984C248.556 25.1063 248.727 25.5188 248.733 26.0359H247.949C247.949 25.7222 247.853 25.4782 247.661 25.3039C247.475 25.1238 247.211 25.0337 246.868 25.0337C246.531 25.0337 246.267 25.1151 246.075 25.2777C245.889 25.4404 245.796 25.667 245.796 25.9574C245.796 26.2189 245.866 26.4454 246.005 26.6372C246.145 26.8289 246.345 26.9654 246.607 27.0467L247.478 27.3256C247.902 27.4592 248.231 27.6858 248.463 28.0053C248.695 28.3248 248.811 28.6995 248.811 29.1294C248.811 29.478 248.73 29.783 248.567 30.0444C248.405 30.3059 248.175 30.5092 247.879 30.6544C247.589 30.7997 247.249 30.8723 246.859 30.8723ZM251.247 30.7852V30.0706H252.545V25.1383H251.247V24.4237H254.645V25.1383H253.347V30.0706H254.645V30.7852H251.247ZM259.068 30.8723C258.684 30.8723 258.353 30.7997 258.074 30.6544C257.801 30.5092 257.589 30.3001 257.438 30.027C257.293 29.7482 257.22 29.4199 257.22 29.0423V26.1666C257.22 25.7832 257.293 25.4549 257.438 25.1819C257.589 24.9088 257.801 24.6997 258.074 24.5544C258.353 24.4092 258.684 24.3366 259.068 24.3366C259.451 24.3366 259.779 24.4092 260.052 24.5544C260.331 24.6997 260.543 24.9088 260.688 25.1819C260.84 25.4549 260.915 25.7803 260.915 26.1579V29.0423C260.915 29.4199 260.84 29.7482 260.688 30.027C260.543 30.3001 260.331 30.5092 260.052 30.6544C259.779 30.7997 259.451 30.8723 259.068 30.8723ZM259.068 30.1664C259.41 30.1664 259.672 30.0706 259.852 29.8789C260.038 29.6813 260.131 29.4025 260.131 29.0423V26.1666C260.131 25.8064 260.038 25.5304 259.852 25.3387C259.672 25.1412 259.41 25.0424 259.068 25.0424C258.731 25.0424 258.469 25.1412 258.283 25.3387C258.097 25.5304 258.004 25.8064 258.004 26.1666V29.0423C258.004 29.4025 258.097 29.6813 258.283 29.8789C258.469 30.0706 258.731 30.1664 259.068 30.1664ZM263.359 30.7852V24.4237H264.405L266.348 29.8702C266.336 29.7249 266.322 29.5477 266.305 29.3386C266.293 29.1236 266.281 28.9 266.27 28.6676C266.264 28.4294 266.261 28.2057 266.261 27.9966V24.4237H267.019V30.7852H265.973L264.039 25.3387C264.05 25.4782 264.062 25.6553 264.074 25.8703C264.085 26.0794 264.094 26.3031 264.1 26.5413C264.111 26.7737 264.117 26.9973 264.117 27.2123V30.7852H263.359Z" fill="#959EAA"/>
<path d="M229.883 61.2544L228.688 57.8185H223.702L222.507 61.2544H219.948L224.635 48.183H227.829L232.516 61.2544H229.883ZM224.505 55.503H227.885L226.204 50.6292L224.505 55.503ZM234.581 61.2544V48.183H240.164C242.685 48.183 244.534 49.8262 244.534 52.3658C244.534 54.9054 242.685 56.5487 240.164 56.5487H237.046V61.2544H234.581ZM240.164 54.2518C241.303 54.2518 241.976 53.4676 241.976 52.3658C241.976 51.2641 241.303 50.4985 240.164 50.4985H237.046V54.2518H240.164ZM246.929 61.2544V48.183H252.512C255.033 48.183 256.882 49.8262 256.882 52.3658C256.882 54.9054 255.033 56.5487 252.512 56.5487H249.394V61.2544H246.929ZM252.512 54.2518C253.651 54.2518 254.324 53.4676 254.324 52.3658C254.324 51.2641 253.651 50.4985 252.512 50.4985H249.394V54.2518H252.512ZM259.277 61.2544V48.183H264.842C267.344 48.183 269.23 49.7515 269.23 52.0857C269.23 53.4862 268.539 54.5319 267.456 55.1295C268.278 55.6337 268.875 56.5113 269.043 57.9492C269.23 59.5551 269.379 60.3581 269.66 61.2544H267.12C266.877 60.3767 266.765 59.4431 266.616 58.248C266.466 56.9595 265.888 56.1752 264.468 56.1752H261.742V61.2544H259.277ZM261.742 54.0091H264.842C266 54.0091 266.672 53.2808 266.672 52.2538C266.672 51.2267 266 50.4985 264.842 50.4985H261.742V54.0091ZM277.676 61.4411C274.072 61.4411 271.215 58.8268 271.215 54.7187C271.215 50.6105 274.072 47.9962 277.676 47.9962C281.28 47.9962 284.137 50.6105 284.137 54.7187C284.137 58.8268 281.28 61.4411 277.676 61.4411ZM277.676 59.0696C279.992 59.0696 281.579 57.3516 281.579 54.7187C281.579 52.0857 279.992 50.3678 277.676 50.3678C275.342 50.3678 273.774 52.0857 273.774 54.7187C273.774 57.3516 275.342 59.0696 277.676 59.0696ZM289.53 61.2544L284.88 48.183H287.532L291.024 58.36L294.516 48.183H297.074L292.443 61.2544H289.53ZM299.13 61.2544V48.183H307.831V50.4985H301.595V53.3555H307.365V55.671H301.595V58.9389H308.018V61.2544H299.13Z" fill="#34D399"/>
<path d="M222.374 102.24C221.99 102.24 221.656 102.167 221.371 102.022C221.093 101.877 220.875 101.668 220.718 101.395C220.567 101.116 220.491 100.788 220.491 100.41V97.5343C220.491 97.1508 220.567 96.8226 220.718 96.5495C220.875 96.2765 221.093 96.0674 221.371 95.9221C221.656 95.7769 221.99 95.7043 222.374 95.7043C222.757 95.7043 223.088 95.7798 223.367 95.9308C223.646 96.0761 223.861 96.2852 224.012 96.5583C224.163 96.8313 224.238 97.1566 224.238 97.5343H223.454C223.454 97.1741 223.358 96.8981 223.167 96.7064C222.981 96.5089 222.716 96.4101 222.374 96.4101C222.031 96.4101 221.761 96.506 221.563 96.6977C221.371 96.8894 221.276 97.1654 221.276 97.5255V100.41C221.276 100.77 221.371 101.049 221.563 101.247C221.761 101.438 222.031 101.534 222.374 101.534C222.716 101.534 222.981 101.438 223.167 101.247C223.358 101.049 223.454 100.77 223.454 100.41H224.238C224.238 100.782 224.163 101.107 224.012 101.386C223.861 101.659 223.646 101.871 223.367 102.022C223.088 102.167 222.757 102.24 222.374 102.24ZM228.46 102.24C228.077 102.24 227.746 102.167 227.467 102.022C227.194 101.877 226.982 101.668 226.831 101.395C226.685 101.116 226.613 100.788 226.613 100.41V97.5343C226.613 97.1508 226.685 96.8226 226.831 96.5495C226.982 96.2765 227.194 96.0674 227.467 95.9221C227.746 95.7769 228.077 95.7043 228.46 95.7043C228.844 95.7043 229.172 95.7769 229.445 95.9221C229.724 96.0674 229.936 96.2765 230.081 96.5495C230.232 96.8226 230.308 97.1479 230.308 97.5255V100.41C230.308 100.788 230.232 101.116 230.081 101.395C229.936 101.668 229.724 101.877 229.445 102.022C229.172 102.167 228.844 102.24 228.46 102.24ZM228.46 101.534C228.803 101.534 229.064 101.438 229.244 101.247C229.43 101.049 229.523 100.77 229.523 100.41V97.5343C229.523 97.1741 229.43 96.8981 229.244 96.7064C229.064 96.5089 228.803 96.4101 228.46 96.4101C228.123 96.4101 227.862 96.5089 227.676 96.7064C227.49 96.8981 227.397 97.1741 227.397 97.5343V100.41C227.397 100.77 227.49 101.049 227.676 101.247C227.862 101.438 228.123 101.534 228.46 101.534ZM232.752 102.153V95.7914H233.797L235.741 101.238C235.729 101.093 235.714 100.915 235.697 100.706C235.685 100.491 235.674 100.268 235.662 100.035C235.656 99.7971 235.653 99.5734 235.653 99.3643V95.7914H236.412V102.153H235.366L233.431 96.7064C233.443 96.8458 233.455 97.023 233.466 97.238C233.478 97.4471 233.487 97.6708 233.492 97.909C233.504 98.1414 233.51 98.365 233.51 98.58V102.153H232.752ZM238.917 102.153V95.7827H242.664V96.4973H239.684V98.6148H242.437V99.3294H239.701V102.153H238.917ZM245.125 102.153V101.438H246.424V96.506H245.125V95.7914H248.524V96.506H247.225V101.438H248.524V102.153H245.125ZM251.134 102.153V95.7914H252.781C253.193 95.7914 253.547 95.8698 253.844 96.0267C254.146 96.1835 254.378 96.4043 254.541 96.689C254.709 96.9736 254.794 97.3106 254.794 97.6998V100.236C254.794 100.625 254.709 100.965 254.541 101.255C254.378 101.54 254.146 101.761 253.844 101.918C253.547 102.074 253.193 102.153 252.781 102.153H251.134ZM251.918 101.456H252.781C253.164 101.456 253.463 101.348 253.678 101.133C253.899 100.918 254.009 100.619 254.009 100.236V97.6998C254.009 97.3222 253.899 97.0259 253.678 96.811C253.463 96.596 253.164 96.4885 252.781 96.4885H251.918V101.456ZM257.325 102.153V95.7914H260.985V96.506H258.1V98.4754H260.68V99.1813H258.1V101.438H260.985V102.153H257.325ZM263.359 102.153V95.7914H264.405L266.348 101.238C266.336 101.093 266.322 100.915 266.305 100.706C266.293 100.491 266.281 100.268 266.27 100.035C266.264 99.7971 266.261 99.5734 266.261 99.3643V95.7914H267.019V102.153H265.973L264.039 96.7064C264.05 96.8458 264.062 97.023 264.074 97.238C264.085 97.4471 264.094 97.6708 264.1 97.909C264.111 98.1414 264.117 98.365 264.117 98.58V102.153H263.359ZM271.345 102.24C270.962 102.24 270.628 102.167 270.343 102.022C270.064 101.877 269.847 101.668 269.69 101.395C269.539 101.116 269.463 100.788 269.463 100.41V97.5343C269.463 97.1508 269.539 96.8226 269.69 96.5495C269.847 96.2765 270.064 96.0674 270.343 95.9221C270.628 95.7769 270.962 95.7043 271.345 95.7043C271.729 95.7043 272.06 95.7798 272.339 95.9308C272.618 96.0761 272.833 96.2852 272.984 96.5583C273.135 96.8313 273.21 97.1566 273.21 97.5343H272.426C272.426 97.1741 272.33 96.8981 272.138 96.7064C271.953 96.5089 271.688 96.4101 271.345 96.4101C271.003 96.4101 270.733 96.506 270.535 96.6977C270.343 96.8894 270.247 97.1654 270.247 97.5255V100.41C270.247 100.77 270.343 101.049 270.535 101.247C270.733 101.438 271.003 101.534 271.345 101.534C271.688 101.534 271.953 101.438 272.138 101.247C272.33 101.049 272.426 100.77 272.426 100.41H273.21C273.21 100.782 273.135 101.107 272.984 101.386C272.833 101.659 272.618 101.871 272.339 102.022C272.06 102.167 271.729 102.24 271.345 102.24ZM275.689 102.153V95.7914H279.349V96.506H276.465V98.4754H279.044V99.1813H276.465V101.438H279.349V102.153H275.689Z" fill="#959EAA"/>
<path d="M225.308 131.564C222.525 131.564 220.322 130.238 220.322 127.773C220.322 126.205 221.237 125.178 222.507 124.618C221.48 124.039 220.751 123.086 220.751 121.705C220.751 119.501 222.731 118.119 225.308 118.119C227.885 118.119 229.864 119.501 229.864 121.705C229.864 123.086 229.136 124.039 228.109 124.618C229.379 125.178 230.294 126.205 230.294 127.773C230.294 130.238 228.109 131.564 225.308 131.564ZM225.308 129.249C226.708 129.249 227.735 128.595 227.735 127.549C227.735 126.485 226.727 125.831 225.308 125.831C223.889 125.831 222.899 126.485 222.899 127.549C222.899 128.595 223.907 129.249 225.308 129.249ZM225.308 123.516C226.465 123.516 227.306 122.9 227.306 121.966C227.306 121.032 226.465 120.435 225.308 120.435C224.15 120.435 223.31 121.032 223.31 121.966C223.31 122.9 224.15 123.516 225.308 123.516ZM233.095 131.377L238.211 120.771H234.141V122.452H231.806V118.306H240.975V120.491L235.858 131.377H233.095ZM245.878 124.151C244.328 124.151 242.872 123.142 242.872 121.126C242.872 119.128 244.328 118.119 245.878 118.119C247.428 118.119 248.885 119.128 248.885 121.126C248.885 123.142 247.428 124.151 245.878 124.151ZM245.878 122.62C246.607 122.62 247.186 122.097 247.186 121.126C247.186 120.155 246.607 119.651 245.878 119.651C245.131 119.651 244.571 120.155 244.571 121.126C244.571 122.097 245.131 122.62 245.878 122.62ZM243.936 131.377L253.236 118.306H255.29L245.99 131.377H243.936ZM253.329 131.564C251.779 131.564 250.323 130.556 250.323 128.539C250.323 126.541 251.779 125.533 253.329 125.533C254.879 125.533 256.336 126.541 256.336 128.539C256.336 130.556 254.879 131.564 253.329 131.564ZM253.329 130.033C254.057 130.033 254.636 129.51 254.636 128.539C254.636 127.568 254.057 127.064 253.329 127.064C252.582 127.064 252.022 127.568 252.022 128.539C252.022 129.51 252.582 130.033 253.329 130.033Z" fill="#34D399"/>
<circle cx="158.102" cy="79.0508" r="2.4898" fill="#34D399"/>
<circle cx="204.786" cy="79.0508" r="2.4898" fill="#34D399"/>
<path d="M160.903 78.428C160.731 78.428 160.592 78.5674 160.592 78.7393C160.592 78.9111 160.731 79.0505 160.903 79.0505V78.7393V78.428ZM202.205 78.9593C202.326 78.8378 202.326 78.6407 202.205 78.5192L200.224 76.5386C200.103 76.417 199.906 76.417 199.784 76.5386C199.662 76.6601 199.662 76.8572 199.784 76.9787L201.545 78.7393L199.784 80.4998C199.662 80.6214 199.662 80.8184 199.784 80.9399C199.906 81.0615 200.103 81.0615 200.224 80.9399L202.205 78.9593ZM160.903 78.7393V79.0505H201.985V78.7393V78.428H160.903V78.7393Z" fill="#34D399"/>
</svg>
