<svg width="384" height="264" viewBox="0 0 384 264" fill="none" xmlns="http://www.w3.org/2000/svg">
<path d="M259.2 24H28.8C26.149 24 24 26.149 24 28.8V235.2C24 237.851 26.149 240 28.8 240H259.2C261.851 240 264 237.851 264 235.2V28.8C264 26.149 261.851 24 259.2 24Z" fill="#0F172A" stroke="#1E293B" stroke-width="1.2"/>
<path d="M181.2 48H39.5999C38.9372 48 38.3999 48.5373 38.3999 49.2V51.6C38.3999 52.2627 38.9372 52.8 39.5999 52.8H181.2C181.863 52.8 182.4 52.2627 182.4 51.6V49.2C182.4 48.5373 181.863 48 181.2 48Z" fill="#1E293B"/>
<path d="M225.6 64.8H39.5999C38.9372 64.8 38.3999 65.3373 38.3999 66V68.4C38.3999 69.0628 38.9372 69.6 39.5999 69.6H225.6C226.263 69.6 226.8 69.0628 226.8 68.4V66C226.8 65.3373 226.263 64.8 225.6 64.8Z" fill="#1E293B"/>
<path d="M198 81.6001H39.5999C38.9372 81.6001 38.3999 82.1374 38.3999 82.8001V85.2001C38.3999 85.8628 38.9372 86.4001 39.5999 86.4001H198C198.663 86.4001 199.2 85.8628 199.2 85.2001V82.8001C199.2 82.1374 198.663 81.6001 198 81.6001Z" fill="#1E293B"/>
<path d="M242.4 98.3999H39.5999C38.9372 98.3999 38.3999 98.9372 38.3999 99.5999V102C38.3999 102.663 38.9372 103.2 39.5999 103.2H242.4C243.063 103.2 243.6 102.663 243.6 102V99.5999C243.6 98.9372 243.063 98.3999 242.4 98.3999Z" fill="#1E293B"/>
<path d="M214.8 115.2H39.5999C38.9372 115.2 38.3999 115.737 38.3999 116.4V118.8C38.3999 119.463 38.9372 120 39.5999 120H214.8C215.463 120 216 119.463 216 118.8V116.4C216 115.737 215.463 115.2 214.8 115.2Z" fill="#1E293B"/>
<path d="M187.2 132H39.5999C38.9372 132 38.3999 132.537 38.3999 133.2V135.6C38.3999 136.263 38.9372 136.8 39.5999 136.8H187.2C187.863 136.8 188.4 136.263 188.4 135.6V133.2C188.4 132.537 187.863 132 187.2 132Z" fill="#1E293B"/>
<path d="M231.6 148.8H39.5999C38.9372 148.8 38.3999 149.337 38.3999 150V152.4C38.3999 153.063 38.9372 153.6 39.5999 153.6H231.6C232.263 153.6 232.8 153.063 232.8 152.4V150C232.8 149.337 232.263 148.8 231.6 148.8Z" fill="#1E293B"/>
<path d="M204 165.6H39.5999C38.9372 165.6 38.3999 166.137 38.3999 166.8V169.2C38.3999 169.863 38.9372 170.4 39.5999 170.4H204C204.663 170.4 205.2 169.863 205.2 169.2V166.8C205.2 166.137 204.663 165.6 204 165.6Z" fill="#1E293B"/>
<path d="M248.4 182.4H39.5999C38.9372 182.4 38.3999 182.937 38.3999 183.6V186C38.3999 186.663 38.9372 187.2 39.5999 187.2H248.4C249.063 187.2 249.6 186.663 249.6 186V183.6C249.6 182.937 249.063 182.4 248.4 182.4Z" fill="#1E293B"/>
<path d="M220.8 199.2H39.5999C38.9372 199.2 38.3999 199.737 38.3999 200.4V202.8C38.3999 203.463 38.9372 204 39.5999 204H220.8C221.463 204 222 203.463 222 202.8V200.4C222 199.737 221.463 199.2 220.8 199.2Z" fill="#1E293B"/>
<path opacity="0.9" d="M133.2 64.8H39.5999C38.9372 64.8 38.3999 65.3373 38.3999 66V68.4C38.3999 69.0628 38.9372 69.6 39.5999 69.6H133.2C133.863 69.6 134.4 69.0628 134.4 68.4V66C134.4 65.3373 133.863 64.8 133.2 64.8Z" fill="#10B981"/>
<path opacity="0.6" d="M205.2 115.2H39.5999C38.9372 115.2 38.3999 115.737 38.3999 116.4V118.8C38.3999 119.463 38.9372 120 39.5999 120H205.2C205.863 120 206.4 119.463 206.4 118.8V116.4C206.4 115.737 205.863 115.2 205.2 115.2Z" fill="#10B981"/>
<path opacity="0.8" d="M109.2 165.6H39.5999C38.9372 165.6 38.3999 166.137 38.3999 166.8V169.2C38.3999 169.863 38.9372 170.4 39.5999 170.4H109.2C109.863 170.4 110.4 169.863 110.4 169.2V166.8C110.4 166.137 109.863 165.6 109.2 165.6Z" fill="#10B981"/>
<path d="M355.2 24H292.8C290.149 24 288 26.149 288 28.8V235.2C288 237.851 290.149 240 292.8 240H355.2C357.851 240 360 237.851 360 235.2V28.8C360 26.149 357.851 24 355.2 24Z" fill="#0F172A" stroke="#064E3B" stroke-width="1.2"/>
<path d="M302.896 45V38.0182H307.109V38.7682H303.741V41.1273H306.891V41.8773H303.741V44.25H307.164V45H302.896ZM309.042 38.0182L310.842 40.9227H310.897L312.697 38.0182H313.692L311.497 41.5091L313.692 45H312.697L310.897 42.15H310.842L309.042 45H308.047L310.297 41.5091L308.047 38.0182H309.042ZM314.411 38.7682V38.0182H319.647V38.7682H317.451V45H316.606V38.7682H314.411ZM320.952 45V38.0182H323.311C323.856 38.0182 324.304 38.1114 324.654 38.2977C325.004 38.4818 325.263 38.7352 325.431 39.058C325.599 39.3807 325.684 39.7477 325.684 40.1591C325.684 40.5705 325.599 40.9352 325.431 41.2534C325.263 41.5716 325.005 41.8216 324.657 42.0034C324.31 42.183 323.865 42.2727 323.324 42.2727H321.415V41.5091H323.297C323.67 41.5091 323.97 41.4545 324.197 41.3455C324.427 41.2364 324.593 41.0818 324.695 40.8818C324.799 40.6795 324.852 40.4386 324.852 40.1591C324.852 39.8795 324.799 39.6352 324.695 39.4261C324.59 39.217 324.423 39.0557 324.194 38.942C323.964 38.8261 323.661 38.7682 323.284 38.7682H321.797V45H320.952ZM324.238 41.8636L325.956 45H324.974L323.284 41.8636H324.238ZM327.379 45H326.492L329.056 38.0182H329.929L332.492 45H331.606L329.52 39.1227H329.465L327.379 45ZM327.706 42.2727H331.279V43.0227H327.706V42.2727ZM338.87 40.2H338.024C337.974 39.9568 337.887 39.7432 337.762 39.5591C337.639 39.375 337.489 39.2205 337.312 39.0955C337.137 38.9682 336.943 38.8727 336.729 38.8091C336.515 38.7455 336.293 38.7136 336.061 38.7136C335.638 38.7136 335.255 38.8205 334.912 39.0341C334.571 39.2477 334.299 39.5625 334.097 39.9784C333.897 40.3943 333.797 40.9045 333.797 41.5091C333.797 42.1136 333.897 42.6239 334.097 43.0398C334.299 43.4557 334.571 43.7705 334.912 43.9841C335.255 44.1977 335.638 44.3045 336.061 44.3045C336.293 44.3045 336.515 44.2727 336.729 44.2091C336.943 44.1455 337.137 44.0511 337.312 43.9261C337.489 43.7989 337.639 43.6432 337.762 43.4591C337.887 43.2727 337.974 43.0591 338.024 42.8182H338.87C338.806 43.175 338.69 43.4943 338.522 43.7761C338.354 44.058 338.145 44.2977 337.895 44.4955C337.645 44.6909 337.364 44.8398 337.053 44.942C336.744 45.0443 336.413 45.0955 336.061 45.0955C335.465 45.0955 334.936 44.95 334.472 44.6591C334.009 44.3682 333.644 43.9545 333.378 43.4182C333.112 42.8818 332.979 42.2455 332.979 41.5091C332.979 40.7727 333.112 40.1364 333.378 39.6C333.644 39.0636 334.009 38.65 334.472 38.3591C334.936 38.0682 335.465 37.9227 336.061 37.9227C336.413 37.9227 336.744 37.9739 337.053 38.0761C337.364 38.1784 337.645 38.3284 337.895 38.5261C338.145 38.7216 338.354 38.9602 338.522 39.242C338.69 39.5216 338.806 39.8409 338.87 40.2ZM339.854 38.7682V38.0182H345.091V38.7682H342.895V45H342.05V38.7682H339.854Z" fill="#10B981"/>
<path opacity="0.08" d="M348 60H300C298.675 60 297.6 61.0745 297.6 62.4V79.2C297.6 80.5255 298.675 81.6 300 81.6H348C349.326 81.6 350.4 80.5255 350.4 79.2V62.4C350.4 61.0745 349.326 60 348 60Z" fill="#10B981"/>
<path d="M312.628 69.8H311.888C311.844 69.5872 311.768 69.4003 311.658 69.2392C311.551 69.0781 311.42 68.9429 311.264 68.8335C311.111 68.7222 310.941 68.6386 310.754 68.583C310.567 68.5273 310.373 68.4994 310.17 68.4994C309.8 68.4994 309.465 68.5929 309.164 68.7798C308.866 68.9668 308.629 69.2422 308.452 69.6061C308.277 69.97 308.189 70.4165 308.189 70.9455C308.189 71.4744 308.277 71.9209 308.452 72.2848C308.629 72.6487 308.866 72.9241 309.164 73.1111C309.465 73.298 309.8 73.3915 310.17 73.3915C310.373 73.3915 310.567 73.3636 310.754 73.308C310.941 73.2523 311.111 73.1697 311.264 73.0604C311.42 72.949 311.551 72.8128 311.658 72.6517C311.768 72.4886 311.844 72.3017 311.888 72.0909H312.628C312.572 72.4031 312.471 72.6825 312.323 72.9291C312.176 73.1757 311.993 73.3855 311.775 73.5585C311.556 73.7295 311.31 73.8598 311.038 73.9493C310.767 74.0388 310.478 74.0835 310.17 74.0835C309.649 74.0835 309.185 73.9562 308.78 73.7017C308.374 73.4472 308.055 73.0852 307.822 72.6159C307.589 72.1466 307.473 71.5898 307.473 70.9455C307.473 70.3011 307.589 69.7443 307.822 69.275C308.055 68.8057 308.374 68.4437 308.78 68.1892C309.185 67.9347 309.649 67.8074 310.17 67.8074C310.478 67.8074 310.767 67.8521 311.038 67.9416C311.31 68.0311 311.556 68.1624 311.775 68.3354C311.993 68.5064 312.176 68.7152 312.323 68.9618C312.471 69.2064 312.572 69.4858 312.628 69.8ZM313.823 74V67.8909H314.563V73.3437H317.403V74H313.823ZM319.184 74H318.409L320.652 67.8909H321.415L323.659 74H322.883L321.057 68.8574H321.01L319.184 74ZM319.471 71.6136H322.597V72.2699H319.471V71.6136ZM325.35 67.8909V74H324.61V67.8909H325.35ZM326.833 67.8909H327.716L329.792 72.9619H329.864L331.94 67.8909H332.823V74H332.131V69.3585H332.071L330.162 74H329.494L327.585 69.3585H327.525V74H326.833V67.8909ZM338.852 74L339.855 67.8909H340.451L339.449 74H338.852ZM336.072 72.3057L336.168 71.7091H340.726L340.63 72.3057H336.072ZM336.705 74L337.707 67.8909H338.303L337.301 74H336.705ZM336.43 70.1818L336.526 69.5852H341.084L340.988 70.1818H336.43Z" fill="#94A3B8"/>
<path opacity="0.12" d="M348 91.2002H300C298.675 91.2002 297.6 92.2747 297.6 93.6002V110.4C297.6 111.726 298.675 112.8 300 112.8H348C349.326 112.8 350.4 111.726 350.4 110.4V93.6002C350.4 92.2747 349.326 91.2002 348 91.2002Z" fill="#10B981"/>
<path d="M309.452 105.2V99.0911H311.516C311.995 99.0911 312.387 99.1776 312.691 99.3506C312.998 99.5216 313.224 99.7533 313.371 100.046C313.519 100.338 313.592 100.664 313.592 101.024C313.592 101.384 313.519 101.711 313.371 102.005C313.226 102.3 313.002 102.534 312.697 102.709C312.393 102.882 312.003 102.969 311.528 102.969H310.048V102.313H311.504C311.832 102.313 312.096 102.256 312.295 102.143C312.493 102.029 312.638 101.876 312.727 101.683C312.819 101.488 312.864 101.269 312.864 101.024C312.864 100.779 312.819 100.561 312.727 100.368C312.638 100.175 312.492 100.024 312.292 99.9144C312.091 99.803 311.824 99.7474 311.492 99.7474H310.192V105.2H309.452ZM319.938 102.146C319.938 102.79 319.822 103.347 319.589 103.816C319.357 104.285 319.038 104.647 318.632 104.902C318.226 105.156 317.763 105.284 317.242 105.284C316.721 105.284 316.257 105.156 315.852 104.902C315.446 104.647 315.127 104.285 314.894 103.816C314.662 103.347 314.545 102.79 314.545 102.146C314.545 101.501 314.662 100.945 314.894 100.475C315.127 100.006 315.446 99.6439 315.852 99.3894C316.257 99.1349 316.721 99.0076 317.242 99.0076C317.763 99.0076 318.226 99.1349 318.632 99.3894C319.038 99.6439 319.357 100.006 319.589 100.475C319.822 100.945 319.938 101.501 319.938 102.146ZM319.223 102.146C319.223 101.617 319.134 101.17 318.957 100.806C318.782 100.442 318.544 100.167 318.244 99.98C317.946 99.7931 317.612 99.6996 317.242 99.6996C316.872 99.6996 316.537 99.7931 316.237 99.98C315.938 100.167 315.701 100.442 315.524 100.806C315.349 101.17 315.261 101.617 315.261 102.146C315.261 102.675 315.349 103.121 315.524 103.485C315.701 103.849 315.938 104.124 316.237 104.311C316.537 104.498 316.872 104.592 317.242 104.592C317.612 104.592 317.946 104.498 318.244 104.311C318.544 104.124 318.782 103.849 318.957 103.485C319.134 103.121 319.223 102.675 319.223 102.146ZM321.182 105.2V99.0911H321.922V104.544H324.762V105.2H321.182ZM326.647 99.0911V105.2H325.907V99.0911H326.647ZM333.046 101H332.306C332.263 100.787 332.186 100.6 332.077 100.439C331.969 100.278 331.838 100.143 331.683 100.034C331.53 99.9224 331.36 99.8388 331.173 99.7831C330.986 99.7275 330.791 99.6996 330.588 99.6996C330.218 99.6996 329.883 99.7931 329.583 99.98C329.285 100.167 329.047 100.442 328.87 100.806C328.695 101.17 328.608 101.617 328.608 102.146C328.608 102.675 328.695 103.121 328.87 103.485C329.047 103.849 329.285 104.124 329.583 104.311C329.883 104.498 330.218 104.592 330.588 104.592C330.791 104.592 330.986 104.564 331.173 104.508C331.36 104.452 331.53 104.37 331.683 104.261C331.838 104.149 331.969 104.013 332.077 103.852C332.186 103.689 332.263 103.502 332.306 103.291H333.046C332.991 103.603 332.889 103.883 332.742 104.129C332.595 104.376 332.412 104.586 332.193 104.759C331.974 104.93 331.729 105.06 331.456 105.149C331.186 105.239 330.897 105.284 330.588 105.284C330.067 105.284 329.604 105.156 329.198 104.902C328.793 104.647 328.473 104.285 328.241 103.816C328.008 103.347 327.892 102.79 327.892 102.146C327.892 101.501 328.008 100.945 328.241 100.475C328.473 100.006 328.793 99.6439 329.198 99.3894C329.604 99.1349 330.067 99.0076 330.588 99.0076C330.897 99.0076 331.186 99.0523 331.456 99.1418C331.729 99.2313 331.974 99.3626 332.193 99.5356C332.412 99.7066 332.595 99.9154 332.742 100.162C332.889 100.407 332.991 100.686 333.046 101ZM333.717 99.0911H334.564L336.258 101.943H336.33L338.024 99.0911H338.871L336.664 102.683V105.2H335.924V102.683L333.717 99.0911Z" fill="#94A3B8"/>
<path opacity="0.16" d="M348 122.4H300C298.675 122.4 297.6 123.474 297.6 124.8V141.6C297.6 142.925 298.675 144 300 144H348C349.326 144 350.4 142.925 350.4 141.6V124.8C350.4 123.474 349.326 122.4 348 122.4Z" fill="#10B981"/>
<path d="M315.264 136.4H313.378V130.291H315.347C315.94 130.291 316.447 130.413 316.869 130.658C317.29 130.9 317.613 131.249 317.838 131.705C318.063 132.158 318.175 132.701 318.175 133.333C318.175 133.97 318.062 134.518 317.835 134.977C317.608 135.434 317.278 135.786 316.845 136.033C316.411 136.278 315.884 136.4 315.264 136.4ZM314.118 135.744H315.216C315.721 135.744 316.14 135.646 316.472 135.451C316.804 135.256 317.051 134.979 317.215 134.619C317.378 134.259 317.459 133.831 317.459 133.333C317.459 132.84 317.379 132.416 317.218 132.06C317.056 131.702 316.816 131.427 316.496 131.236C316.175 131.044 315.777 130.947 315.299 130.947H314.118V135.744ZM319.379 136.4H318.604L320.847 130.291H321.611L323.854 136.4H323.078L321.253 131.257H321.205L319.379 136.4ZM319.666 134.014H322.792V134.67H319.666V134.014ZM323.758 130.947V130.291H328.339V130.947H326.418V136.4H325.679V130.947H323.758ZM329.481 136.4V130.291H333.168V130.947H330.221V133.011H332.977V133.668H330.221V135.744H333.216V136.4H329.481Z" fill="#94A3B8"/>
<path opacity="0.2" d="M348 153.6H300C298.675 153.6 297.6 154.675 297.6 156V172.8C297.6 174.126 298.675 175.2 300 175.2H348C349.326 175.2 350.4 174.126 350.4 172.8V156C350.4 154.675 349.326 153.6 348 153.6Z" fill="#10B981"/>
<path d="M306.046 167.6H305.271L307.514 161.491H308.277L310.521 167.6H309.745L307.92 162.457H307.872L306.046 167.6ZM306.333 165.214H309.459V165.87H306.333V165.214ZM311.472 161.491H312.355L314.431 166.562H314.503L316.579 161.491H317.462V167.6H316.77V162.959H316.71L314.801 167.6H314.133L312.224 162.959H312.164V167.6H311.472V161.491ZM324.1 164.546C324.1 165.19 323.984 165.747 323.751 166.216C323.518 166.685 323.199 167.047 322.793 167.302C322.388 167.556 321.924 167.684 321.403 167.684C320.882 167.684 320.419 167.556 320.013 167.302C319.608 167.047 319.288 166.685 319.056 166.216C318.823 165.747 318.707 165.19 318.707 164.546C318.707 163.901 318.823 163.344 319.056 162.875C319.288 162.406 319.608 162.044 320.013 161.789C320.419 161.535 320.882 161.407 321.403 161.407C321.924 161.407 322.388 161.535 322.793 161.789C323.199 162.044 323.518 162.406 323.751 162.875C323.984 163.344 324.1 163.901 324.1 164.546ZM323.384 164.546C323.384 164.017 323.295 163.57 323.118 163.206C322.943 162.842 322.706 162.567 322.406 162.38C322.107 162.193 321.773 162.1 321.403 162.1C321.033 162.1 320.698 162.193 320.398 162.38C320.1 162.567 319.862 162.842 319.685 163.206C319.51 163.57 319.423 164.017 319.423 164.546C319.423 165.075 319.51 165.521 319.685 165.885C319.862 166.249 320.1 166.524 320.398 166.711C320.698 166.898 321.033 166.992 321.403 166.992C321.773 166.992 322.107 166.898 322.406 166.711C322.706 166.524 322.943 166.249 323.118 165.885C323.295 165.521 323.384 165.075 323.384 164.546ZM329.353 161.491H330.093V165.536C330.093 165.954 329.994 166.326 329.797 166.655C329.602 166.981 329.327 167.238 328.971 167.427C328.615 167.614 328.197 167.707 327.718 167.707C327.239 167.707 326.821 167.614 326.465 167.427C326.109 167.238 325.833 166.981 325.636 166.655C325.441 166.326 325.344 165.954 325.344 165.536V161.491H326.083V165.476C326.083 165.775 326.149 166.04 326.28 166.273C326.412 166.503 326.599 166.685 326.841 166.819C327.086 166.95 327.378 167.015 327.718 167.015C328.058 167.015 328.351 166.95 328.595 166.819C328.84 166.685 329.027 166.503 329.156 166.273C329.287 166.04 329.353 165.775 329.353 165.476V161.491ZM336.414 161.491V167.6H335.698L332.369 162.804H332.31V167.6H331.57V161.491H332.286L335.627 166.3H335.686V161.491H336.414ZM337.56 162.147V161.491H342.142V162.147H340.221V167.6H339.481V162.147H337.56Z" fill="#94A3B8"/>
<path opacity="0.24" d="M348 184.8H300C298.675 184.8 297.6 185.874 297.6 187.2V204C297.6 205.325 298.675 206.4 300 206.4H348C349.326 206.4 350.4 205.325 350.4 204V187.2C350.4 185.874 349.326 184.8 348 184.8Z" fill="#10B981"/>
<path d="M315.424 198.8V192.691H317.488C317.965 192.691 318.357 192.772 318.663 192.935C318.969 193.096 319.196 193.318 319.343 193.601C319.49 193.883 319.564 194.204 319.564 194.564C319.564 194.924 319.49 195.243 319.343 195.522C319.196 195.8 318.97 196.019 318.666 196.178C318.362 196.335 317.973 196.413 317.5 196.413H315.829V195.745H317.476C317.802 195.745 318.065 195.698 318.263 195.602C318.464 195.507 318.61 195.371 318.699 195.196C318.79 195.019 318.836 194.809 318.836 194.564C318.836 194.319 318.79 194.106 318.699 193.923C318.608 193.74 318.461 193.599 318.26 193.499C318.06 193.398 317.794 193.347 317.464 193.347H316.163V198.8H315.424ZM318.299 196.055L319.803 198.8H318.944L317.464 196.055H318.299ZM321.537 192.691V198.8H320.797V192.691H321.537ZM326.361 194.218C326.325 193.916 326.18 193.681 325.925 193.514C325.671 193.347 325.358 193.263 324.989 193.263C324.718 193.263 324.481 193.307 324.279 193.395C324.078 193.482 323.921 193.603 323.807 193.756C323.696 193.909 323.64 194.083 323.64 194.278C323.64 194.441 323.679 194.581 323.757 194.698C323.836 194.814 323.938 194.91 324.061 194.988C324.184 195.063 324.313 195.126 324.449 195.176C324.584 195.223 324.708 195.262 324.822 195.292L325.442 195.459C325.601 195.501 325.778 195.558 325.973 195.632C326.17 195.705 326.358 195.806 326.537 195.933C326.718 196.058 326.867 196.22 326.984 196.416C327.101 196.613 327.16 196.855 327.16 197.141C327.16 197.471 327.074 197.77 326.901 198.036C326.73 198.303 326.479 198.514 326.149 198.672C325.821 198.829 325.422 198.907 324.953 198.907C324.515 198.907 324.136 198.837 323.816 198.695C323.498 198.554 323.248 198.357 323.065 198.105C322.884 197.852 322.781 197.559 322.757 197.225H323.521C323.541 197.455 323.618 197.646 323.754 197.798C323.891 197.947 324.064 198.058 324.273 198.132C324.483 198.203 324.71 198.239 324.953 198.239C325.235 198.239 325.489 198.193 325.713 198.102C325.938 198.008 326.116 197.879 326.247 197.714C326.379 197.547 326.444 197.352 326.444 197.129C326.444 196.927 326.388 196.761 326.274 196.634C326.161 196.507 326.012 196.403 325.827 196.324C325.642 196.244 325.442 196.175 325.227 196.115L324.475 195.9C323.998 195.763 323.62 195.567 323.342 195.313C323.064 195.058 322.924 194.725 322.924 194.313C322.924 193.971 323.017 193.673 323.202 193.419C323.389 193.162 323.639 192.963 323.953 192.822C324.27 192.679 324.623 192.607 325.012 192.607C325.406 192.607 325.756 192.678 326.062 192.819C326.369 192.958 326.611 193.149 326.79 193.392C326.971 193.634 327.067 193.91 327.077 194.218H326.361ZM328.376 198.8V192.691H329.116V195.721H329.188L331.932 192.691H332.899L330.333 195.447L332.899 198.8H332.004L329.88 195.96L329.116 196.819V198.8H328.376Z" fill="#94A3B8"/>
<path opacity="0.6" d="M24 144H264" stroke="#10B981" stroke-width="1.2"/>
</svg>
