<svg width="40" height="40" viewBox="0 0 40 40" fill="none" xmlns="http://www.w3.org/2000/svg">
<rect width="40" height="40" rx="10" fill="#30CC94"/>
<path d="M26.4866 24L21.1533 14.6667C21.037 14.4615 20.8684 14.2908 20.6646 14.172C20.4608 14.0533 20.2291 13.9907 19.9933 13.9907C19.7574 13.9907 19.5258 14.0533 19.322 14.172C19.1182 14.2908 18.9496 14.4615 18.8333 14.6667L13.5 24C13.3824 24.2036 13.3208 24.4346 13.3213 24.6697C13.3218 24.9047 13.3845 25.1355 13.5029 25.3385C13.6214 25.5416 13.7914 25.7097 13.9957 25.8259C14.2001 25.942 14.4316 26.0021 14.6666 26H25.3333C25.5672 25.9997 25.797 25.938 25.9995 25.8208C26.202 25.7037 26.3701 25.5354 26.487 25.3327C26.6038 25.1301 26.6653 24.9002 26.6653 24.6663C26.6652 24.4324 26.6036 24.2026 26.4866 24Z" stroke="#020617" stroke-linecap="round" stroke-linejoin="round"/>
<path d="M20 18V20.6667" stroke="#020617" stroke-linecap="round" stroke-linejoin="round"/>
<path d="M20 23.3333H20.0067" stroke="#020617" stroke-linecap="round" stroke-linejoin="round"/>
</svg>
