<svg width="66" height="414" viewBox="0 0 66 414" fill="none" xmlns="http://www.w3.org/2000/svg">
<path d="M29.5683 -5.67544L25.5701 8.08599C16.6438 7.80704 11.8087 11.6193 11.8087 17.7562C11.8087 23.986 15.7139 27.4264 22.9666 27.4264L66.0175 27.4264L66.0175 39.7001L22.9666 39.7001C7.34549 39.7001 -0.000140539 30.7738 -0.00013997 17.7562C-0.000139373 4.08774 9.01918 -7.34912 29.5683 -5.67544ZM-0.000142744 81.2038C-0.000141959 63.2581 13.0174 49.0318 33.4736 49.0318C53.9298 49.0318 66.9474 63.2581 66.9474 81.2038C66.9474 99.1494 53.9298 113.376 33.4736 113.376C13.0174 113.376 -0.000143528 99.1494 -0.000142744 81.2038ZM11.8087 81.2038C11.8087 92.7336 20.3631 100.637 33.4736 100.637C46.5842 100.637 55.1386 92.7336 55.1386 81.2038C55.1386 69.5809 46.5842 61.7704 33.4736 61.7704C20.3631 61.7704 11.8087 69.5809 11.8087 81.2038ZM-0.000145732 149.569C-0.000145 132.832 10.5069 122.604 28.8245 122.604L66.0175 122.604L66.0175 134.878L28.8245 134.878C17.6666 134.878 11.8086 140.829 11.8086 149.569C11.8086 158.775 17.6666 164.725 28.8245 164.725L66.0175 164.725L66.0175 176.534L28.8245 176.534C10.5069 176.534 -0.000146468 166.399 -0.000145732 149.569ZM0.929679 187.732L66.0175 187.732L66.0175 215.441C66.0175 227.901 58.207 237.292 46.5841 237.292C39.6105 237.292 34.4034 233.851 31.428 228.458C28.9175 232.55 24.5473 235.525 17.3876 236.362C9.3911 237.292 5.39284 238.036 0.929677 239.43L0.929677 226.785C5.29986 225.576 9.94899 225.018 15.8999 224.274C22.3157 223.53 26.221 220.648 26.221 213.581L26.221 200.006L0.929678 200.006L0.929679 187.732ZM37.0069 200.006L37.0069 215.441C37.0069 221.206 40.6333 224.553 45.7473 224.553C50.8613 224.553 54.4877 221.206 54.4877 215.441L54.4877 200.006L37.0069 200.006ZM0.929675 287.292L47.0491 258.654L0.929676 258.654L0.929676 246.845L66.0175 246.845L66.0175 260.328L19.8981 288.966L66.0175 288.966L66.0175 300.775L0.929674 300.775L0.929675 287.292ZM0.929672 357.398L18.0385 351.447L18.0385 326.621L0.929673 320.67L0.929674 307.931L66.0175 331.27L66.0175 347.17L0.929671 370.508L0.929672 357.398ZM29.5683 330.619L29.5683 347.449L53.8368 339.08L29.5683 330.619ZM0.929671 377.693L66.0175 377.693L66.0175 389.966L12.4595 389.966L12.4595 419.907L0.929669 419.907L0.929671 377.693Z" fill="#152129" fill-opacity="0.3"/>
</svg>
