<svg width="114" height="32" viewBox="0 0 114 32" fill="none" xmlns="http://www.w3.org/2000/svg">
<g clip-path="url(#clip0_94_404)">
<path d="M46.8723 20.399C44.2946 20.399 42.8195 19.1027 42.4768 17.1508L44.3393 16.3611C44.5628 17.6723 45.3525 18.5812 46.8723 18.5812C48.0345 18.5812 48.6007 18.0299 48.6007 17.2849C48.6007 15.0201 42.7748 16.9422 42.7748 12.7702C42.7748 10.8034 44.4287 9.671 46.5445 9.671C48.7497 9.671 50.2248 10.8332 50.5824 12.7851H48.4517C48.2431 12.055 47.7067 11.4888 46.5445 11.4888C45.427 11.4888 44.831 12.0103 44.831 12.6808C44.831 14.886 50.642 12.9937 50.642 17.1955C50.642 19.1772 49.0179 20.399 46.8723 20.399ZM55.5353 20.399C53.5089 20.399 51.6017 19.0431 51.6017 16.4058C51.6017 13.7834 53.5089 12.4275 55.5353 12.4275C57.5468 12.4275 59.454 13.7834 59.454 16.4058C59.454 19.0431 57.5468 20.399 55.5353 20.399ZM55.5353 18.6408C56.6379 18.6408 57.5021 17.8511 57.5021 16.4058C57.5021 14.9754 56.6379 14.1857 55.5353 14.1857C54.4178 14.1857 53.5536 14.9754 53.5536 16.4058C53.5536 17.8511 54.4178 18.6408 55.5353 18.6408ZM62.19 20.25L59.4037 12.5765H61.3556L63.2777 18.1491L65.1998 12.5765H67.1368L64.3207 20.25H62.19ZM67.853 20.25V12.5765H69.7304V20.25H67.853ZM68.7917 11.7719C67.8828 11.7719 67.5848 11.5931 67.5848 10.6842C67.5848 9.7753 67.8828 9.5965 68.7917 9.5965C69.7006 9.5965 69.9986 9.7753 69.9986 10.6842C69.9986 11.5931 69.7006 11.7719 68.7917 11.7719ZM75.9391 20.25L74.1809 17.8362L72.4078 20.25H70.2026L73.0932 16.3313L70.3516 12.5765H72.6313L74.2405 14.7817L75.8646 12.5765H78.0549L75.3282 16.2866L78.2039 20.25H75.9391Z" fill="#F8FAFC"/>
<path d="M79.7906 20.399C78.8519 20.399 78.5539 20.2202 78.5539 19.1623C78.5539 18.1044 78.8519 17.9256 79.7906 17.9256C80.7293 17.9256 81.0273 18.1044 81.0273 19.1623C81.0273 20.2202 80.7293 20.399 79.7906 20.399Z" fill="#30CC94"/>
<path d="M82.3102 20.25V9.82H84.277V18.4024H89.0748V20.25H82.3102ZM92.4294 20.399C90.9543 20.399 89.8815 19.5795 89.8815 18.0895C89.8815 16.823 90.8649 15.9439 92.787 15.6459L94.8283 15.333C94.8134 14.5731 94.2472 14.1112 93.4426 14.1112C92.6529 14.1112 91.9973 14.5731 91.9228 15.2287L89.8815 15.8992C89.7176 13.7685 91.4609 12.4275 93.4426 12.4275C95.32 12.4275 96.7057 13.4556 96.7057 15.184V20.25H94.8283V19.3858C94.2323 20.0861 93.3532 20.399 92.4294 20.399ZM91.8334 18.0001C91.8334 18.5365 92.2506 18.8047 92.8168 18.8047C93.7555 18.8047 94.8283 18.0597 94.8283 16.8975V16.7932L92.9509 17.0912C92.2506 17.2104 91.8334 17.5233 91.8334 18.0001ZM101.911 20.399C100.987 20.399 100.198 20.0712 99.6462 19.4305V20.25H97.7688V9.522H99.6462V13.3811C100.198 12.7553 100.987 12.4275 101.911 12.4275C103.803 12.4275 105.517 13.7834 105.517 16.4058C105.517 19.0431 103.803 20.399 101.911 20.399ZM101.553 18.6408C102.671 18.6408 103.565 17.8511 103.565 16.4058C103.565 14.9754 102.671 14.1857 101.553 14.1857C100.436 14.1857 99.5419 14.9754 99.5419 16.4058C99.5419 17.8511 100.436 18.6408 101.553 18.6408ZM109.464 20.399C107.586 20.399 106.186 19.4454 106.022 18.0597L107.78 17.3445C107.929 18.3577 108.629 18.7749 109.464 18.7749C110.149 18.7749 110.596 18.462 110.596 17.9554C110.596 16.3611 106.082 18.0597 106.082 14.886C106.082 13.3811 107.437 12.4275 109.196 12.4275C111.103 12.4275 112.31 13.4258 112.474 15.0052H110.522C110.403 14.4241 110 14.0516 109.196 14.0516C108.495 14.0516 108.033 14.3347 108.033 14.7817C108.033 16.1674 112.548 14.4688 112.548 17.8511C112.548 19.356 111.252 20.399 109.464 20.399Z" fill="white"/>
<rect x="0.5" y="0.5" width="31" height="31" rx="9.5" fill="#0F172A"/>
<rect x="0.5" y="0.5" width="31" height="31" rx="9.5" stroke="#1E293B"/>
<path d="M21.3333 16.6667C21.3333 20 19 21.6667 16.2266 22.6333C16.0814 22.6825 15.9237 22.6802 15.78 22.6267C13 21.6667 10.6666 20 10.6666 16.6667V12C10.6666 11.8232 10.7369 11.6536 10.8619 11.5286C10.9869 11.4036 11.1565 11.3333 11.3333 11.3333C12.6666 11.3333 14.3333 10.5333 15.4933 9.52C15.6345 9.39933 15.8142 9.33303 16 9.33303C16.1857 9.33303 16.3654 9.39933 16.5066 9.52C17.6733 10.54 19.3333 11.3333 20.6666 11.3333C20.8434 11.3333 21.013 11.4036 21.138 11.5286C21.2631 11.6536 21.3333 11.8232 21.3333 12V16.6667Z" stroke="#30CC94" stroke-linecap="round" stroke-linejoin="round"/>
<rect x="27" y="-1" width="6" height="6" rx="3" fill="#30CC94"/>
</g>
<defs>
<clipPath id="clip0_94_404">
<rect width="114" height="32" fill="white"/>
</clipPath>
</defs>
</svg>
