<svg width="123" height="498" viewBox="0 0 123 498" fill="none" xmlns="http://www.w3.org/2000/svg">
<path d="M0.00013839 51.1599C0.000139701 21.1577 15.088 3.98874 37.8064 9.13107e-08L46.9979 21.6779C31.7366 24.2793 21.1578 33.4707 21.1578 51.1599C21.1578 64.6869 27.5745 71.277 36.2456 71.277C62.606 71.277 40.2344 3.46847 88.7929 3.46847C111.685 3.46847 124.865 22.7185 124.865 47.3446C124.865 73.0113 111.338 90.1802 88.6195 94.3423L88.6195 69.5428C97.1172 67.1149 103.707 60.8716 103.707 47.3446C103.707 34.3378 97.6375 27.4009 89.8335 27.4009C64.1668 27.4009 86.1916 95.036 37.2862 95.036C14.2209 95.036 0.000137298 76.1329 0.00013839 51.1599ZM0.000133255 168.616C0.000134718 135.146 24.2794 108.612 62.4326 108.612C100.586 108.612 124.865 135.146 124.865 168.616C124.865 202.087 100.586 228.621 62.4326 228.621C24.2794 228.621 0.000131792 202.087 0.000133255 168.616ZM22.0249 168.616C22.0249 190.121 37.9799 204.862 62.4326 204.862C86.8853 204.862 102.84 190.121 102.84 168.616C102.84 146.938 86.8853 132.371 62.4326 132.371C37.9799 132.371 22.0249 146.938 22.0249 168.616ZM1.73436 272.921L123.131 229.739L123.131 254.365L28.615 286.795L123.131 319.225L123.131 342.984L1.73436 299.975L1.73436 272.921ZM1.73436 356.296L123.131 356.296L123.131 379.188L1.73436 379.188L1.73436 356.296ZM1.73435 471.227L44.7434 444.173L1.73436 416.598L1.73436 390.758L65.0339 431.513L123.131 394.92L123.131 421.628L86.0181 445.04L123.131 468.972L123.131 494.292L65.901 457.7L1.73435 497.934L1.73435 471.227Z" fill="#152129" fill-opacity="0.3"/>
</svg>
