<svg width="400" height="349" viewBox="0 0 400 349" fill="none" xmlns="http://www.w3.org/2000/svg">
<g clip-path="url(#clip0_309_749)">
<path d="M438.632 -17.004H26V366.154H438.632V-17.004Z" fill="url(#paint0_radial_309_749)"/>
<g opacity="0.045">
<path d="M47.2102 21.8987L69.3155 34.4251V60.2145L47.2102 72.7408L25.105 60.2145V34.4251L47.2102 21.8987Z" stroke="#00E5A0" stroke-width="0.477008"/>
<path d="M91.4212 21.8987L113.526 34.4251V60.2145L91.4212 72.7408L69.3159 60.2145V34.4251L91.4212 21.8987Z" stroke="#00E5A0" stroke-width="0.477008"/>
<path d="M135.632 21.8987L157.737 34.4251V60.2145L135.632 72.7408L113.526 60.2145V34.4251L135.632 21.8987Z" stroke="#00E5A0" stroke-width="0.477008"/>
<path d="M179.842 21.8987L201.947 34.4251V60.2145L179.842 72.7408L157.737 60.2145V34.4251L179.842 21.8987Z" stroke="#00E5A0" stroke-width="0.477008"/>
<path d="M224.053 21.8987L246.158 34.4251V60.2145L224.053 72.7408L201.947 60.2145V34.4251L224.053 21.8987Z" stroke="#00E5A0" stroke-width="0.477008"/>
<path d="M268.263 21.8987L290.368 34.4251V60.2145L268.263 72.7408L246.158 60.2145V34.4251L268.263 21.8987Z" stroke="#00E5A0" stroke-width="0.477008"/>
<path d="M312.473 21.8987L334.579 34.4251V60.2145L312.473 72.7408L290.368 60.2145V34.4251L312.473 21.8987Z" stroke="#00E5A0" stroke-width="0.477008"/>
<path d="M25.1053 72.7408L47.2105 85.2672V111.057L25.1053 123.583L3 111.057V85.2672L25.1053 72.7408Z" stroke="#00E5A0" stroke-width="0.477008"/>
<path d="M69.3157 72.7408L91.421 85.2672V111.057L69.3157 123.583L47.2104 111.057V85.2672L69.3157 72.7408Z" stroke="#00E5A0" stroke-width="0.477008"/>
<path d="M113.526 72.7408L135.631 85.2672V111.057L113.526 123.583L91.4209 111.057V85.2672L113.526 72.7408Z" stroke="#00E5A0" stroke-width="0.477008"/>
<path d="M157.737 72.7408L179.842 85.2672V111.057L157.737 123.583L135.631 111.057V85.2672L157.737 72.7408Z" stroke="#00E5A0" stroke-width="0.477008"/>
<path d="M201.947 72.7408L224.052 85.2672V111.057L201.947 123.583L179.842 111.057V85.2672L201.947 72.7408Z" stroke="#00E5A0" stroke-width="0.477008"/>
<path d="M246.158 72.7408L268.263 85.2672V111.057L246.158 123.583L224.053 111.057V85.2672L246.158 72.7408Z" stroke="#00E5A0" stroke-width="0.477008"/>
<path d="M290.368 72.7408L312.474 85.2672V111.057L290.368 123.583L268.263 111.057V85.2672L290.368 72.7408Z" stroke="#00E5A0" stroke-width="0.477008"/>
<path d="M334.579 72.7408L356.684 85.2672V111.057L334.579 123.583L312.474 111.057V85.2672L334.579 72.7408Z" stroke="#00E5A0" stroke-width="0.477008"/>
<path d="M47.2102 123.583L69.3155 136.109V161.899L47.2102 174.425L25.105 161.899V136.109L47.2102 123.583Z" stroke="#00E5A0" stroke-width="0.477008"/>
<path d="M91.4212 123.583L113.526 136.109V161.899L91.4212 174.425L69.3159 161.899V136.109L91.4212 123.583Z" stroke="#00E5A0" stroke-width="0.477008"/>
<path d="M135.632 123.583L157.737 136.109V161.899L135.632 174.425L113.526 161.899V136.109L135.632 123.583Z" stroke="#00E5A0" stroke-width="0.477008"/>
<path d="M179.842 123.583L201.947 136.109V161.899L179.842 174.425L157.737 161.899V136.109L179.842 123.583Z" stroke="#00E5A0" stroke-width="0.477008"/>
<path d="M224.053 123.583L246.158 136.109V161.899L224.053 174.425L201.947 161.899V136.109L224.053 123.583Z" stroke="#00E5A0" stroke-width="0.477008"/>
<path d="M268.263 123.583L290.368 136.109V161.899L268.263 174.425L246.158 161.899V136.109L268.263 123.583Z" stroke="#00E5A0" stroke-width="0.477008"/>
<path d="M312.473 123.583L334.579 136.109V161.899L312.473 174.425L290.368 161.899V136.109L312.473 123.583Z" stroke="#00E5A0" stroke-width="0.477008"/>
<path d="M25.1053 174.425L47.2105 186.951V212.741L25.1053 225.267L3 212.741V186.951L25.1053 174.425Z" stroke="#00E5A0" stroke-width="0.477008"/>
<path d="M69.3157 174.425L91.421 186.951V212.741L69.3157 225.267L47.2104 212.741V186.951L69.3157 174.425Z" stroke="#00E5A0" stroke-width="0.477008"/>
<path d="M113.526 174.425L135.631 186.951V212.741L113.526 225.267L91.4209 212.741V186.951L113.526 174.425Z" stroke="#00E5A0" stroke-width="0.477008"/>
<path d="M157.737 174.425L179.842 186.951V212.741L157.737 225.267L135.631 212.741V186.951L157.737 174.425Z" stroke="#00E5A0" stroke-width="0.477008"/>
<path d="M201.947 174.425L224.052 186.951V212.741L201.947 225.267L179.842 212.741V186.951L201.947 174.425Z" stroke="#00E5A0" stroke-width="0.477008"/>
<path d="M246.158 174.425L268.263 186.951V212.741L246.158 225.267L224.053 212.741V186.951L246.158 174.425Z" stroke="#00E5A0" stroke-width="0.477008"/>
<path d="M290.368 174.425L312.474 186.951V212.741L290.368 225.267L268.263 212.741V186.951L290.368 174.425Z" stroke="#00E5A0" stroke-width="0.477008"/>
<path d="M334.579 174.425L356.684 186.951V212.741L334.579 225.267L312.474 212.741V186.951L334.579 174.425Z" stroke="#00E5A0" stroke-width="0.477008"/>
<path d="M47.2102 225.267L69.3155 237.794V263.583L47.2102 276.109L25.105 263.583V237.794L47.2102 225.267Z" stroke="#00E5A0" stroke-width="0.477008"/>
<path d="M91.4212 225.267L113.526 237.794V263.583L91.4212 276.109L69.3159 263.583V237.794L91.4212 225.267Z" stroke="#00E5A0" stroke-width="0.477008"/>
<path d="M135.632 225.267L157.737 237.794V263.583L135.632 276.109L113.526 263.583V237.794L135.632 225.267Z" stroke="#00E5A0" stroke-width="0.477008"/>
<path d="M179.842 225.267L201.947 237.794V263.583L179.842 276.109L157.737 263.583V237.794L179.842 225.267Z" stroke="#00E5A0" stroke-width="0.477008"/>
<path d="M224.053 225.267L246.158 237.794V263.583L224.053 276.109L201.947 263.583V237.794L224.053 225.267Z" stroke="#00E5A0" stroke-width="0.477008"/>
<path d="M268.263 225.267L290.368 237.794V263.583L268.263 276.109L246.158 263.583V237.794L268.263 225.267Z" stroke="#00E5A0" stroke-width="0.477008"/>
<path d="M312.473 225.267L334.579 237.794V263.583L312.473 276.109L290.368 263.583V237.794L312.473 225.267Z" stroke="#00E5A0" stroke-width="0.477008"/>
<path d="M69.3157 276.109L91.421 288.636V314.425L69.3157 326.951L47.2104 314.425V288.636L69.3157 276.109Z" stroke="#00E5A0" stroke-width="0.477008"/>
<path d="M113.526 276.109L135.631 288.636V314.425L113.526 326.951L91.4209 314.425V288.636L113.526 276.109Z" stroke="#00E5A0" stroke-width="0.477008"/>
<path d="M157.737 276.109L179.842 288.636V314.425L157.737 326.951L135.631 314.425V288.636L157.737 276.109Z" stroke="#00E5A0" stroke-width="0.477008"/>
<path d="M201.947 276.109L224.052 288.636V314.425L201.947 326.951L179.842 314.425V288.636L201.947 276.109Z" stroke="#00E5A0" stroke-width="0.477008"/>
<path d="M246.158 276.109L268.263 288.636V314.425L246.158 326.951L224.053 314.425V288.636L246.158 276.109Z" stroke="#00E5A0" stroke-width="0.477008"/>
<path d="M290.368 276.109L312.474 288.636V314.425L290.368 326.951L268.263 314.425V288.636L290.368 276.109Z" stroke="#00E5A0" stroke-width="0.477008"/>
<path d="M334.579 276.109L356.684 288.636V314.425L334.579 326.951L312.474 314.425V288.636L334.579 276.109Z" stroke="#00E5A0" stroke-width="0.477008"/>
</g>
<g opacity="0.22">
<path d="M212.316 159.737L123.895 93.4211" stroke="#00E5A0" stroke-width="0.55651"/>
<path d="M212.315 159.737L234.421 78.6842" stroke="#00E5A0" stroke-width="0.55651"/>
<path d="M212.315 159.737L315.473 111.842" stroke="#00E5A0" stroke-width="0.55651"/>
<path d="M212.315 159.737L330.21 200.263" stroke="#00E5A0" stroke-width="0.55651"/>
<path d="M212.315 159.737L286 248.158" stroke="#00E5A0" stroke-width="0.55651"/>
<path d="M212.316 159.737L149.684 244.474" stroke="#00E5A0" stroke-width="0.55651"/>
<path d="M212.316 159.737L94.4209 192.895" stroke="#00E5A0" stroke-width="0.55651"/>
<path d="M123.895 93.421L234.421 78.6842" stroke="#00E5A0" stroke-width="0.55651"/>
<path d="M234.421 78.6842L315.474 111.842" stroke="#00E5A0" stroke-width="0.55651"/>
<path d="M315.474 111.842L330.21 200.263" stroke="#00E5A0" stroke-width="0.55651"/>
<path d="M330.211 200.263L286 248.158" stroke="#00E5A0" stroke-width="0.55651"/>
<path d="M286 248.158L149.684 244.474" stroke="#00E5A0" stroke-width="0.55651"/>
<path d="M149.684 244.474L94.4209 192.895" stroke="#00E5A0" stroke-width="0.55651"/>
<path d="M94.4209 192.895L123.895 93.4211" stroke="#00E5A0" stroke-width="0.55651"/>
<path d="M72.3159 56.5789L123.895 93.4211" stroke="#00E5A0" stroke-width="0.55651"/>
<path d="M72.3159 56.5789L234.421 78.6842" stroke="#00E5A0" stroke-width="0.55651"/>
<path d="M359.684 67.6316L234.421 78.6842" stroke="#00E5A0" stroke-width="0.55651"/>
<path d="M359.684 67.6316L315.474 111.842" stroke="#00E5A0" stroke-width="0.55651"/>
<path d="M381.789 255.526L330.21 200.263" stroke="#00E5A0" stroke-width="0.55651"/>
<path d="M381.789 255.526L286 248.158" stroke="#00E5A0" stroke-width="0.55651"/>
<path d="M300.737 314.474L286 248.158" stroke="#00E5A0" stroke-width="0.55651"/>
<path d="M300.737 314.474L149.684 244.474" stroke="#00E5A0" stroke-width="0.55651"/>
<path d="M101.79 307.105L149.684 244.474" stroke="#00E5A0" stroke-width="0.55651"/>
<path d="M101.789 307.105L94.4209 192.895" stroke="#00E5A0" stroke-width="0.55651"/>
<path d="M41.3687 145L94.4213 192.895" stroke="#00E5A0" stroke-width="0.55651"/>
<path d="M41.3687 145L123.895 93.4211" stroke="#00E5A0" stroke-width="0.55651"/>
<path opacity="0.5" d="M123.895 93.4211L315.473 111.842" stroke="#00E5A0" stroke-width="0.55651"/>
<path opacity="0.4" d="M234.421 78.6842L330.21 200.263" stroke="#00E5A0" stroke-width="0.55651"/>
<path opacity="0.4" d="M94.4209 192.895L286 248.158" stroke="#00E5A0" stroke-width="0.55651"/>
</g>
<g opacity="0.5" filter="url(#filter0_f_309_749)">
<path d="M212.316 180.368C223.711 180.368 232.948 171.131 232.948 159.737C232.948 148.342 223.711 139.105 212.316 139.105C200.922 139.105 191.685 148.342 191.685 159.737C191.685 171.131 200.922 180.368 212.316 180.368Z" fill="#00E5A0"/>
<path d="M123.895 103.737C129.592 103.737 134.211 99.1183 134.211 93.421C134.211 87.7238 129.592 83.1053 123.895 83.1053C118.198 83.1053 113.579 87.7238 113.579 93.421C113.579 99.1183 118.198 103.737 123.895 103.737Z" fill="#00E5A0"/>
<path d="M234.421 90.4737C240.932 90.4737 246.211 85.1953 246.211 78.6842C246.211 72.173 240.932 66.8947 234.421 66.8947C227.91 66.8947 222.632 72.173 222.632 78.6842C222.632 85.1953 227.91 90.4737 234.421 90.4737Z" fill="#00E5A0"/>
<path d="M315.474 121.421C320.764 121.421 325.053 117.132 325.053 111.842C325.053 106.552 320.764 102.263 315.474 102.263C310.184 102.263 305.895 106.552 305.895 111.842C305.895 117.132 310.184 121.421 315.474 121.421Z" fill="#00E5A0"/>
<path d="M330.211 211.316C336.315 211.316 341.263 206.367 341.263 200.263C341.263 194.159 336.315 189.211 330.211 189.211C324.107 189.211 319.158 194.159 319.158 200.263C319.158 206.367 324.107 211.316 330.211 211.316Z" fill="#00E5A0"/>
<path d="M286 257C290.884 257 294.842 253.041 294.842 248.158C294.842 243.275 290.884 239.316 286 239.316C281.117 239.316 277.158 243.275 277.158 248.158C277.158 253.041 281.117 257 286 257Z" fill="#00E5A0"/>
<path d="M149.684 254.789C155.382 254.789 160 250.171 160 244.474C160 238.776 155.382 234.158 149.684 234.158C143.987 234.158 139.369 238.776 139.369 244.474C139.369 250.171 143.987 254.789 149.684 254.789Z" fill="#00E5A0"/>
<path d="M94.4212 202.474C99.7115 202.474 104 198.185 104 192.895C104 187.604 99.7115 183.316 94.4212 183.316C89.1309 183.316 84.8423 187.604 84.8423 192.895C84.8423 198.185 89.1309 202.474 94.4212 202.474Z" fill="#00E5A0"/>
</g>
<path opacity="0.95" d="M212.316 173C219.641 173 225.579 167.062 225.579 159.737C225.579 152.412 219.641 146.474 212.316 146.474C204.991 146.474 199.053 152.412 199.053 159.737C199.053 167.062 204.991 173 212.316 173Z" fill="#071A12" stroke="#00E5A0" stroke-width="1.19252"/>
<path opacity="0.85" d="M212.316 167.105C216.385 167.105 219.684 163.806 219.684 159.737C219.684 155.667 216.385 152.368 212.316 152.368C208.246 152.368 204.947 155.667 204.947 159.737C204.947 163.806 208.246 167.105 212.316 167.105Z" fill="#00E5A0"/>
<path d="M212.316 163.421C214.351 163.421 216 161.772 216 159.737C216 157.702 214.351 156.053 212.316 156.053C210.281 156.053 208.632 157.702 208.632 159.737C208.632 161.772 210.281 163.421 212.316 163.421Z" fill="#CBFFF1"/>
<g opacity="0.9">
<path d="M123.895 100.789C127.964 100.789 131.263 97.4905 131.263 93.421C131.263 89.3516 127.964 86.0526 123.895 86.0526C119.825 86.0526 116.526 89.3516 116.526 93.421C116.526 97.4905 119.825 100.789 123.895 100.789Z" fill="#071A12" stroke="#00E5A0" stroke-width="0.795014"/>
<path d="M234.421 87.5263C239.305 87.5263 243.263 83.5676 243.263 78.6842C243.263 73.8008 239.305 69.8421 234.421 69.8421C229.538 69.8421 225.579 73.8008 225.579 78.6842C225.579 83.5676 229.538 87.5263 234.421 87.5263Z" fill="#071A12" stroke="#00E5A0" stroke-width="0.795014"/>
<path d="M315.474 118.474C319.136 118.474 322.105 115.505 322.105 111.842C322.105 108.18 319.136 105.211 315.474 105.211C311.811 105.211 308.842 108.18 308.842 111.842C308.842 115.505 311.811 118.474 315.474 118.474Z" fill="#071A12" stroke="#00E5A0" stroke-width="0.795014"/>
<path d="M330.21 208.368C334.687 208.368 338.316 204.74 338.316 200.263C338.316 195.787 334.687 192.158 330.21 192.158C325.734 192.158 322.105 195.787 322.105 200.263C322.105 204.74 325.734 208.368 330.21 208.368Z" fill="#071A12" stroke="#00E5A0" stroke-width="0.795014"/>
<path d="M286 254.053C289.255 254.053 291.894 251.413 291.894 248.158C291.894 244.902 289.255 242.263 286 242.263C282.744 242.263 280.105 244.902 280.105 248.158C280.105 251.413 282.744 254.053 286 254.053Z" fill="#071A12" stroke="#00E5A0" stroke-width="0.795014"/>
<path d="M149.684 251.842C153.754 251.842 157.053 248.543 157.053 244.474C157.053 240.404 153.754 237.105 149.684 237.105C145.615 237.105 142.316 240.404 142.316 244.474C142.316 248.543 145.615 251.842 149.684 251.842Z" fill="#071A12" stroke="#00E5A0" stroke-width="0.795014"/>
<path d="M94.4211 199.526C98.0836 199.526 101.053 196.557 101.053 192.895C101.053 189.232 98.0836 186.263 94.4211 186.263C90.7586 186.263 87.7896 189.232 87.7896 192.895C87.7896 196.557 90.7586 199.526 94.4211 199.526Z" fill="#071A12" stroke="#00E5A0" stroke-width="0.795014"/>
</g>
<path opacity="0.7" d="M123.895 96.7368C125.726 96.7368 127.211 95.2523 127.211 93.421C127.211 91.5898 125.726 90.1053 123.895 90.1053C122.064 90.1053 120.579 91.5898 120.579 93.421C120.579 95.2523 122.064 96.7368 123.895 96.7368Z" fill="#00E5A0"/>
<path opacity="0.75" d="M234.421 82.7369C236.659 82.7369 238.473 80.9224 238.473 78.6842C238.473 76.446 236.659 74.6316 234.421 74.6316C232.183 74.6316 230.368 76.446 230.368 78.6842C230.368 80.9224 232.183 82.7369 234.421 82.7369Z" fill="#00E5A0"/>
<path opacity="0.65" d="M315.474 114.789C317.102 114.789 318.421 113.47 318.421 111.842C318.421 110.214 317.102 108.895 315.474 108.895C313.846 108.895 312.526 110.214 312.526 111.842C312.526 113.47 313.846 114.789 315.474 114.789Z" fill="#00E5A0"/>
<path opacity="0.7" d="M330.211 203.947C332.245 203.947 333.895 202.298 333.895 200.263C333.895 198.228 332.245 196.579 330.211 196.579C328.176 196.579 326.526 198.228 326.526 200.263C326.526 202.298 328.176 203.947 330.211 203.947Z" fill="#00E5A0"/>
<path opacity="0.6" d="M286 250.737C287.424 250.737 288.579 249.582 288.579 248.158C288.579 246.734 287.424 245.579 286 245.579C284.576 245.579 283.421 246.734 283.421 248.158C283.421 249.582 284.576 250.737 286 250.737Z" fill="#00E5A0"/>
<path opacity="0.65" d="M149.684 247.789C151.515 247.789 153 246.305 153 244.474C153 242.642 151.515 241.158 149.684 241.158C147.853 241.158 146.368 242.642 146.368 244.474C146.368 246.305 147.853 247.789 149.684 247.789Z" fill="#00E5A0"/>
<path opacity="0.65" d="M94.421 195.842C96.0488 195.842 97.3684 194.523 97.3684 192.895C97.3684 191.267 96.0488 189.947 94.421 189.947C92.7932 189.947 91.4736 191.267 91.4736 192.895C91.4736 194.523 92.7932 195.842 94.421 195.842Z" fill="#00E5A0"/>
<g opacity="0.7">
<path d="M72.3156 61C74.7573 61 76.7366 59.0206 76.7366 56.579C76.7366 54.1373 74.7573 52.1579 72.3156 52.1579C69.8739 52.1579 67.8945 54.1373 67.8945 56.579C67.8945 59.0206 69.8739 61 72.3156 61Z" fill="#071A12" stroke="#00E5A0" stroke-width="0.55651"/>
<path d="M359.684 72.0526C362.126 72.0526 364.105 70.0733 364.105 67.6316C364.105 65.1899 362.126 63.2105 359.684 63.2105C357.243 63.2105 355.263 65.1899 355.263 67.6316C355.263 70.0733 357.243 72.0526 359.684 72.0526Z" fill="#071A12" stroke="#00E5A0" stroke-width="0.55651"/>
<path d="M381.789 259.211C383.824 259.211 385.473 257.561 385.473 255.526C385.473 253.492 383.824 251.842 381.789 251.842C379.754 251.842 378.105 253.492 378.105 255.526C378.105 257.561 379.754 259.211 381.789 259.211Z" fill="#071A12" stroke="#00E5A0" stroke-width="0.55651"/>
<path d="M300.736 318.895C303.178 318.895 305.158 316.915 305.158 314.474C305.158 312.032 303.178 310.053 300.736 310.053C298.295 310.053 296.315 312.032 296.315 314.474C296.315 316.915 298.295 318.895 300.736 318.895Z" fill="#071A12" stroke="#00E5A0" stroke-width="0.55651"/>
<path d="M101.789 310.789C103.824 310.789 105.473 309.14 105.473 307.105C105.473 305.071 103.824 303.421 101.789 303.421C99.7545 303.421 98.105 305.071 98.105 307.105C98.105 309.14 99.7545 310.789 101.789 310.789Z" fill="#071A12" stroke="#00E5A0" stroke-width="0.55651"/>
<path d="M41.3683 149.421C43.81 149.421 45.7894 147.442 45.7894 145C45.7894 142.558 43.81 140.579 41.3683 140.579C38.9266 140.579 36.9473 142.558 36.9473 145C36.9473 147.442 38.9266 149.421 41.3683 149.421Z" fill="#071A12" stroke="#00E5A0" stroke-width="0.55651"/>
</g>
<g opacity="0.45">
<path d="M72.3152 58.421C73.3326 58.421 74.1574 57.5963 74.1574 56.5789C74.1574 55.5616 73.3326 54.7368 72.3152 54.7368C71.2979 54.7368 70.4731 55.5616 70.4731 56.5789C70.4731 57.5963 71.2979 58.421 72.3152 58.421Z" fill="#00E5A0"/>
<path d="M359.683 69.4737C360.701 69.4737 361.526 68.6489 361.526 67.6316C361.526 66.6142 360.701 65.7895 359.683 65.7895C358.666 65.7895 357.841 66.6142 357.841 67.6316C357.841 68.6489 358.666 69.4737 359.683 69.4737Z" fill="#00E5A0"/>
<path d="M381.789 257C382.603 257 383.263 256.34 383.263 255.526C383.263 254.712 382.603 254.053 381.789 254.053C380.975 254.053 380.315 254.712 380.315 255.526C380.315 256.34 380.975 257 381.789 257Z" fill="#00E5A0"/>
<path d="M300.736 316.316C301.754 316.316 302.578 315.491 302.578 314.474C302.578 313.456 301.754 312.632 300.736 312.632C299.719 312.632 298.894 313.456 298.894 314.474C298.894 315.491 299.719 316.316 300.736 316.316Z" fill="#00E5A0"/>
<path d="M101.789 308.579C102.603 308.579 103.262 307.919 103.262 307.105C103.262 306.291 102.603 305.632 101.789 305.632C100.975 305.632 100.315 306.291 100.315 307.105C100.315 307.919 100.975 308.579 101.789 308.579Z" fill="#00E5A0"/>
<path d="M41.3675 146.842C42.3849 146.842 43.2096 146.017 43.2096 145C43.2096 143.983 42.3849 143.158 41.3675 143.158C40.3501 143.158 39.5254 143.983 39.5254 145C39.5254 146.017 40.3501 146.842 41.3675 146.842Z" fill="#00E5A0"/>
</g>
<path opacity="0.35" d="M212.316 181.842C224.524 181.842 234.421 171.945 234.421 159.737C234.421 147.528 224.524 137.632 212.316 137.632C200.107 137.632 190.21 147.528 190.21 159.737C190.21 171.945 200.107 181.842 212.316 181.842Z" stroke="#00E5A0" stroke-width="0.55651" stroke-dasharray="3.18 4.77"/>
<path opacity="0.18" d="M212.316 190.684C229.407 190.684 243.263 176.829 243.263 159.737C243.263 142.645 229.407 128.789 212.316 128.789C195.224 128.789 181.368 142.645 181.368 159.737C181.368 176.829 195.224 190.684 212.316 190.684Z" stroke="#00E5A0" stroke-width="0.318006" stroke-dasharray="2.39 7.16"/>
<path opacity="0.12" d="M28.1055 159.737H396.526" stroke="#00E5A0" stroke-width="0.278255" stroke-dasharray="1.59 9.54"/>
<g opacity="0.2">
<path d="M28.1055 329.211V343.947H39.1055" stroke="#00E5A0" stroke-width="0.715513" stroke-linecap="round"/>
<path d="M396.526 19.7368V4.99997H381.79" stroke="#00E5A0" stroke-width="0.715513" stroke-linecap="round"/>
</g>
<g opacity="0.18">
<path d="M57.5789 278.737C58.1893 278.737 58.6842 278.242 58.6842 277.632C58.6842 277.021 58.1893 276.526 57.5789 276.526C56.9685 276.526 56.4736 277.021 56.4736 277.632C56.4736 278.242 56.9685 278.737 57.5789 278.737Z" fill="#00E5A0"/>
<path d="M153.368 42.9474C153.979 42.9474 154.474 42.4525 154.474 41.8421C154.474 41.2317 153.979 40.7368 153.368 40.7368C152.758 40.7368 152.263 41.2317 152.263 41.8421C152.263 42.4525 152.758 42.9474 153.368 42.9474Z" fill="#00E5A0"/>
<path d="M344.948 300.842C345.558 300.842 346.053 300.347 346.053 299.737C346.053 299.126 345.558 298.632 344.948 298.632C344.337 298.632 343.842 299.126 343.842 299.737C343.842 300.347 344.337 300.842 344.948 300.842Z" fill="#00E5A0"/>
<path d="M374.421 131.368C375.031 131.368 375.526 130.874 375.526 130.263C375.526 129.653 375.031 129.158 374.421 129.158C373.81 129.158 373.315 129.653 373.315 130.263C373.315 130.874 373.81 131.368 374.421 131.368Z" fill="#00E5A0"/>
<path d="M263.895 337.684C264.505 337.684 265 337.189 265 336.579C265 335.969 264.505 335.474 263.895 335.474C263.284 335.474 262.79 335.969 262.79 336.579C262.79 337.189 263.284 337.684 263.895 337.684Z" fill="#00E5A0"/>
<path d="M112.842 223.474C113.452 223.474 113.947 222.979 113.947 222.368C113.947 221.758 113.452 221.263 112.842 221.263C112.232 221.263 111.737 221.758 111.737 222.368C111.737 222.979 112.232 223.474 112.842 223.474Z" fill="#00E5A0"/>
<path d="M271.263 39.2632C271.873 39.2632 272.368 38.7683 272.368 38.1579C272.368 37.5475 271.873 37.0526 271.263 37.0526C270.653 37.0526 270.158 37.5475 270.158 38.1579C270.158 38.7683 270.653 39.2632 271.263 39.2632Z" fill="#00E5A0"/>
<path d="M352.315 234.305C352.804 234.305 353.2 233.909 353.2 233.421C353.2 232.933 352.804 232.537 352.315 232.537C351.827 232.537 351.431 232.933 351.431 233.421C351.431 233.909 351.827 234.305 352.315 234.305Z" fill="#00E5A0"/>
<path d="M182.842 330.095C183.33 330.095 183.726 329.699 183.726 329.211C183.726 328.722 183.33 328.326 182.842 328.326C182.353 328.326 181.958 328.722 181.958 329.211C181.958 329.699 182.353 330.095 182.842 330.095Z" fill="#00E5A0"/>
</g>
</g>
<defs>
<filter id="filter0_f_309_749" x="73.7121" y="55.7645" width="278.682" height="212.366" filterUnits="userSpaceOnUse" color-interpolation-filters="sRGB">
<feFlood flood-opacity="0" result="BackgroundImageFix"/>
<feBlend mode="normal" in="SourceGraphic" in2="BackgroundImageFix" result="shape"/>
<feGaussianBlur stdDeviation="5.5651" result="effect1_foregroundBlur_309_749"/>
</filter>
<radialGradient id="paint0_radial_309_749" cx="0" cy="0" r="1" gradientUnits="userSpaceOnUse" gradientTransform="translate(232.316 143.922) scale(214.568 199.242)">
<stop stop-color="#0A3D2A" stop-opacity="0.45"/>
<stop offset="1" stop-color="#050C0A" stop-opacity="0"/>
</radialGradient>
<clipPath id="clip0_309_749">
<rect width="400" height="349" fill="white"/>
</clipPath>
</defs>
</svg>
