<svg width="622" height="417" viewBox="0 0 622 417" fill="none" xmlns="http://www.w3.org/2000/svg">
<rect x="8" y="79.074" width="93.506" height="35.1265" rx="2.78162" fill="#0F172A"/>
<rect x="8" y="79.074" width="93.506" height="35.1265" rx="2.78162" stroke="#1E293B" stroke-width="1.30388"/>
<path d="M35.573 101.777C33.081 101.777 31.051 99.8452 31.051 96.7372C31.051 93.6292 33.081 91.6972 35.573 91.6972C37.421 91.6972 38.919 92.6912 39.549 94.3432H38.541C37.967 93.2232 36.917 92.5512 35.573 92.5512C33.571 92.5512 31.975 94.1892 31.975 96.7372C31.975 99.2852 33.571 100.923 35.573 100.923C37.155 100.923 38.317 100.181 38.905 98.4452L39.773 98.9352C39.129 100.727 37.575 101.777 35.573 101.777ZM44.2984 101.777C42.4784 101.777 40.8264 100.475 40.8264 98.1092C40.8264 95.7572 42.4784 94.4552 44.2984 94.4552C46.1044 94.4552 47.7704 95.7572 47.7704 98.1092C47.7704 100.475 46.1044 101.777 44.2984 101.777ZM44.2984 100.951C45.7124 100.951 46.8604 99.9152 46.8604 98.1092C46.8604 96.3172 45.7124 95.2812 44.2984 95.2812C42.8844 95.2812 41.7364 96.3172 41.7364 98.1092C41.7364 99.9152 42.8844 100.951 44.2984 100.951ZM54.6633 97.4512C54.6633 95.8412 53.8093 95.2812 52.7873 95.2812C51.8213 95.2812 50.4913 95.8412 50.4913 98.0112V101.637H49.6233V94.5952H50.4913V95.8412C51.1073 94.7772 52.1713 94.4552 52.9273 94.4552C54.4113 94.4552 55.5313 95.3932 55.5313 97.1572V101.637H54.6633V97.4512ZM60.577 101.637C59.191 101.637 58.379 100.741 58.379 99.4392V95.3792H57.021V94.5952H58.379V92.7752H59.247V94.5952H61.207V95.3792H59.247V99.4392C59.247 100.223 59.681 100.839 60.577 100.839C60.843 100.839 61.095 100.811 61.347 100.671V101.497C61.095 101.609 60.843 101.637 60.577 101.637ZM63.0491 101.637V94.5952H63.9171V96.2892C64.5891 94.9032 65.8351 94.4412 66.9131 94.4552V95.4072C65.4851 95.2532 63.9171 96.1212 63.9171 98.8512V101.637H63.0491ZM71.3687 101.777C69.5487 101.777 67.8967 100.475 67.8967 98.1092C67.8967 95.7572 69.5487 94.4552 71.3687 94.4552C73.1747 94.4552 74.8407 95.7572 74.8407 98.1092C74.8407 100.475 73.1747 101.777 71.3687 101.777ZM71.3687 100.951C72.7827 100.951 73.9307 99.9152 73.9307 98.1092C73.9307 96.3172 72.7827 95.2812 71.3687 95.2812C69.9547 95.2812 68.8067 96.3172 68.8067 98.1092C68.8067 99.9152 69.9547 100.951 71.3687 100.951ZM76.6936 101.637V91.5572H77.5616V101.637H76.6936Z" fill="#EFEFEF"/>
<rect x="500.788" y="79.074" width="120.506" height="35.1265" rx="2.78162" fill="#0F172A"/>
<rect x="500.788" y="79.074" width="120.506" height="35.1265" rx="2.78162" stroke="#1E293B" stroke-width="1.30388"/>
<path d="M531.189 101.637L529.873 98.3192H525.533L524.217 101.637H523.293L527.199 91.8372H528.235L532.141 101.637H531.189ZM525.855 97.5072H529.551L527.703 92.8452L525.855 97.5072ZM533.817 98.7812C533.817 100.391 534.671 100.951 535.693 100.951C536.659 100.951 537.989 100.391 537.989 98.2212V94.5952H538.857V101.637H537.989V100.391C537.373 101.455 536.309 101.777 535.553 101.777C534.069 101.777 532.949 100.839 532.949 99.0752V94.5952H533.817V98.7812ZM543.986 101.637C542.6 101.637 541.788 100.741 541.788 99.4392V95.3792H540.43V94.5952H541.788V92.7752H542.656V94.5952H544.616V95.3792H542.656V99.4392C542.656 100.223 543.09 100.839 543.986 100.839C544.252 100.839 544.504 100.811 544.756 100.671V101.497C544.504 101.609 544.252 101.637 543.986 101.637ZM549.542 101.777C547.722 101.777 546.07 100.475 546.07 98.1092C546.07 95.7572 547.722 94.4552 549.542 94.4552C551.348 94.4552 553.014 95.7572 553.014 98.1092C553.014 100.475 551.348 101.777 549.542 101.777ZM549.542 100.951C550.956 100.951 552.104 99.9152 552.104 98.1092C552.104 96.3172 550.956 95.2812 549.542 95.2812C548.128 95.2812 546.98 96.3172 546.98 98.1092C546.98 99.9152 548.128 100.951 549.542 100.951ZM559.5 97.4512C559.5 95.8412 558.716 95.2812 557.82 95.2812C556.994 95.2812 555.734 95.8412 555.734 98.0112V101.637H554.866V94.5952H555.734V95.7852C556.322 94.7632 557.302 94.4552 557.96 94.4552C558.968 94.4552 559.822 94.9872 560.186 95.9952C560.76 94.8052 561.838 94.4552 562.58 94.4552C563.938 94.4552 565.002 95.3932 565.002 97.1572V101.637H564.134V97.4512C564.134 95.8412 563.336 95.2812 562.44 95.2812C561.614 95.2812 560.368 95.8412 560.368 98.0112V101.637H559.5V97.4512ZM568.75 101.777C567.504 101.777 566.482 101.175 566.482 99.8032C566.482 98.6832 567.336 98.0252 569.03 97.7312L571.438 97.2972V96.9052C571.438 95.9532 570.682 95.2672 569.52 95.2672C568.428 95.2672 567.532 95.9532 567.476 96.9052L566.482 97.3672C566.37 95.6732 567.784 94.4552 569.52 94.4552C571.144 94.4552 572.306 95.4072 572.306 96.8772V101.637H571.438V100.251C570.78 101.441 569.604 101.777 568.75 101.777ZM567.392 99.7752C567.392 100.643 568.078 100.979 568.862 100.979C569.912 100.979 571.438 100.391 571.438 98.1092V98.0672L569.17 98.4732C567.952 98.6972 567.392 99.0892 567.392 99.7752ZM577.346 101.637C575.96 101.637 575.148 100.741 575.148 99.4392V95.3792H573.79V94.5952H575.148V92.7752H576.016V94.5952H577.976V95.3792H576.016V99.4392C576.016 100.223 576.45 100.839 577.346 100.839C577.612 100.839 577.864 100.811 578.116 100.671V101.497C577.864 101.609 577.612 101.637 577.346 101.637ZM579.804 101.637V94.5952H580.672V101.637H579.804ZM580.252 93.4332C579.692 93.4332 579.552 93.3352 579.552 92.7892C579.552 92.2292 579.692 92.1312 580.252 92.1312C580.798 92.1312 580.952 92.2292 580.952 92.7892C580.952 93.3352 580.798 93.4332 580.252 93.4332ZM585.868 101.777C584.048 101.777 582.396 100.475 582.396 98.1092C582.396 95.7572 584.048 94.4552 585.868 94.4552C587.674 94.4552 589.34 95.7572 589.34 98.1092C589.34 100.475 587.674 101.777 585.868 101.777ZM585.868 100.951C587.282 100.951 588.43 99.9152 588.43 98.1092C588.43 96.3172 587.282 95.2812 585.868 95.2812C584.454 95.2812 583.306 96.3172 583.306 98.1092C583.306 99.9152 584.454 100.951 585.868 100.951ZM596.233 97.4512C596.233 95.8412 595.379 95.2812 594.357 95.2812C593.391 95.2812 592.061 95.8412 592.061 98.0112V101.637H591.193V94.5952H592.061V95.8412C592.677 94.7772 593.741 94.4552 594.497 94.4552C595.981 94.4552 597.101 95.3932 597.101 97.1572V101.637H596.233V97.4512Z" fill="#EFEFEF"/>
<rect x="4" y="313.772" width="101.506" height="35.1265" rx="2.78162" fill="#0F172A"/>
<rect x="4" y="313.772" width="101.506" height="35.1265" rx="2.78162" stroke="#1E293B" stroke-width="1.30388"/>
<path d="M21.573 336.475C19.081 336.475 17.051 334.543 17.051 331.435C17.051 328.327 19.081 326.395 21.573 326.395C23.421 326.395 24.919 327.389 25.549 329.041H24.541C23.967 327.921 22.917 327.249 21.573 327.249C19.571 327.249 17.975 328.887 17.975 331.435C17.975 333.983 19.571 335.621 21.573 335.621C23.155 335.621 24.317 334.879 24.905 333.143L25.773 333.633C25.129 335.425 23.575 336.475 21.573 336.475ZM30.2984 336.475C28.4784 336.475 26.8264 335.173 26.8264 332.807C26.8264 330.455 28.4784 329.153 30.2984 329.153C32.1044 329.153 33.7704 330.455 33.7704 332.807C33.7704 335.173 32.1044 336.475 30.2984 336.475ZM30.2984 335.649C31.7124 335.649 32.8604 334.613 32.8604 332.807C32.8604 331.015 31.7124 329.979 30.2984 329.979C28.8844 329.979 27.7364 331.015 27.7364 332.807C27.7364 334.613 28.8844 335.649 30.2984 335.649ZM40.2573 332.149C40.2573 330.539 39.4733 329.979 38.5773 329.979C37.7513 329.979 36.4913 330.539 36.4913 332.709V336.335H35.6233V329.293H36.4913V330.483C37.0793 329.461 38.0593 329.153 38.7173 329.153C39.7253 329.153 40.5793 329.685 40.9433 330.693C41.5173 329.503 42.5953 329.153 43.3373 329.153C44.6953 329.153 45.7593 330.091 45.7593 331.855V336.335H44.8913V332.149C44.8913 330.539 44.0933 329.979 43.1973 329.979C42.3713 329.979 41.1253 330.539 41.1253 332.709V336.335H40.2573V332.149ZM51.3333 336.475C50.2413 336.475 49.2613 335.985 48.6593 335.047V339.135H47.7913V329.293H48.6593V330.581C49.2613 329.643 50.2413 329.153 51.3333 329.153C53.0693 329.153 54.6513 330.455 54.6513 332.807C54.6513 335.173 53.0693 336.475 51.3333 336.475ZM51.1933 335.649C52.6213 335.649 53.7413 334.613 53.7413 332.807C53.7413 331.015 52.6213 329.979 51.1933 329.979C49.7793 329.979 48.6453 331.015 48.6453 332.807C48.6453 334.613 49.7793 335.649 51.1933 335.649ZM56.5003 336.335V326.255H57.3683V336.335H56.5003ZM59.4807 336.335V329.293H60.3487V336.335H59.4807ZM59.9287 328.131C59.3687 328.131 59.2287 328.033 59.2287 327.487C59.2287 326.927 59.3687 326.829 59.9287 326.829C60.4747 326.829 60.6287 326.927 60.6287 327.487C60.6287 328.033 60.4747 328.131 59.9287 328.131ZM64.6139 336.475C63.3679 336.475 62.3459 335.873 62.3459 334.501C62.3459 333.381 63.1999 332.723 64.8939 332.429L67.3019 331.995V331.603C67.3019 330.651 66.5459 329.965 65.3839 329.965C64.2919 329.965 63.3959 330.651 63.3399 331.603L62.3459 332.065C62.2339 330.371 63.6479 329.153 65.3839 329.153C67.0079 329.153 68.1699 330.105 68.1699 331.575V336.335H67.3019V334.949C66.6439 336.139 65.4679 336.475 64.6139 336.475ZM63.2559 334.473C63.2559 335.341 63.9419 335.677 64.7259 335.677C65.7759 335.677 67.3019 335.089 67.3019 332.807V332.765L65.0339 333.171C63.8159 333.395 63.2559 333.787 63.2559 334.473ZM75.2258 332.149C75.2258 330.539 74.3718 329.979 73.3498 329.979C72.3838 329.979 71.0538 330.539 71.0538 332.709V336.335H70.1858V329.293H71.0538V330.539C71.6698 329.475 72.7338 329.153 73.4898 329.153C74.9738 329.153 76.0938 330.091 76.0938 331.855V336.335H75.2258V332.149ZM81.0321 336.475C79.2541 336.475 77.6721 335.173 77.6721 332.807C77.6721 330.455 79.2541 329.153 81.0321 329.153C82.3201 329.153 83.5381 329.867 84.0141 331.239H83.0201C82.6561 330.413 81.9281 329.979 81.0321 329.979C79.6461 329.979 78.5821 331.015 78.5821 332.807C78.5821 334.613 79.6461 335.649 81.0321 335.649C82.1381 335.649 82.9921 335.145 83.3421 333.689L84.1821 334.165C83.7341 335.719 82.5021 336.475 81.0321 336.475ZM88.5933 336.475C86.7733 336.475 85.2053 335.173 85.2053 332.807C85.2053 330.455 86.7453 329.153 88.5093 329.153C90.2873 329.153 91.8133 330.455 91.8133 332.765V333.017H86.0873C86.1713 334.711 87.1933 335.677 88.5933 335.677C89.4893 335.677 90.2313 335.341 90.6513 334.571H91.6593C91.0853 335.873 89.8953 336.475 88.5933 336.475ZM86.1293 332.247H90.8893C90.7073 330.805 89.7693 329.951 88.5093 329.951C87.2633 329.951 86.3113 330.791 86.1293 332.247Z" fill="#EFEFEF"/>
<rect x="500.788" y="313.772" width="94.506" height="35.1265" rx="2.78162" fill="#0F172A"/>
<rect x="500.788" y="313.772" width="94.506" height="35.1265" rx="2.78162" stroke="#1E293B" stroke-width="1.30388"/>
<path d="M524.119 336.335V326.535H525.001V336.335H524.119ZM532.166 332.149C532.166 330.539 531.312 329.979 530.29 329.979C529.324 329.979 527.994 330.539 527.994 332.709V336.335H527.126V329.293H527.994V330.539C528.61 329.475 529.674 329.153 530.43 329.153C531.914 329.153 533.034 330.091 533.034 331.855V336.335H532.166V332.149ZM537.534 336.475C535.84 336.475 534.72 335.551 534.552 334.473L535.378 333.997C535.588 335.131 536.386 335.677 537.534 335.677C538.542 335.677 539.228 335.131 539.228 334.361C539.228 332.261 534.72 334.081 534.72 331.211C534.72 330.007 535.77 329.153 537.352 329.153C538.878 329.153 539.9 329.965 540.068 331.225H539.116C538.92 330.385 538.304 329.951 537.352 329.951C536.302 329.951 535.63 330.427 535.63 331.183C535.63 333.171 540.124 331.351 540.124 334.333C540.124 335.537 539.074 336.475 537.534 336.475ZM541.55 336.335V329.293H542.418V336.335H541.55ZM541.998 328.131C541.438 328.131 541.298 328.033 541.298 327.487C541.298 326.927 541.438 326.829 541.998 326.829C542.544 326.829 542.698 326.927 542.698 327.487C542.698 328.033 542.544 328.131 541.998 328.131ZM547.793 339.275C545.679 339.275 544.349 337.917 544.433 336.265L545.441 336.727C545.469 337.651 546.295 338.463 547.793 338.463C549.095 338.463 550.271 337.707 550.271 336.055V334.795C549.669 335.705 548.689 336.195 547.597 336.195C545.861 336.195 544.279 334.893 544.279 332.667C544.279 330.455 545.861 329.153 547.597 329.153C548.689 329.153 549.669 329.643 550.271 330.553V329.293H551.139V336.055C551.139 338.169 549.599 339.275 547.793 339.275ZM547.737 335.369C549.151 335.369 550.285 334.333 550.285 332.667C550.285 331.015 549.151 329.979 547.737 329.979C546.309 329.979 545.189 331.015 545.189 332.667C545.189 334.333 546.309 335.369 547.737 335.369ZM558.416 332.149C558.416 330.539 557.562 329.979 556.54 329.979C555.574 329.979 554.244 330.539 554.244 332.709V336.335H553.376V326.255H554.244V330.525C554.86 329.475 555.91 329.153 556.68 329.153C558.164 329.153 559.284 330.091 559.284 331.855V336.335H558.416V332.149ZM564.33 336.335C562.944 336.335 562.132 335.439 562.132 334.137V330.077H560.774V329.293H562.132V327.473H563V329.293H564.96V330.077H563V334.137C563 334.921 563.434 335.537 564.33 335.537C564.596 335.537 564.848 335.509 565.1 335.369V336.195C564.848 336.307 564.596 336.335 564.33 336.335ZM569.252 336.475C567.558 336.475 566.438 335.551 566.27 334.473L567.096 333.997C567.306 335.131 568.104 335.677 569.252 335.677C570.26 335.677 570.946 335.131 570.946 334.361C570.946 332.261 566.438 334.081 566.438 331.211C566.438 330.007 567.488 329.153 569.07 329.153C570.596 329.153 571.618 329.965 571.786 331.225H570.834C570.638 330.385 570.022 329.951 569.07 329.951C568.02 329.951 567.348 330.427 567.348 331.183C567.348 333.171 571.842 331.351 571.842 334.333C571.842 335.537 570.792 336.475 569.252 336.475Z" fill="#EFEFEF"/>
<rect x="242.142" y="3.88013" width="118.506" height="35.1265" rx="2.78162" fill="#0F172A"/>
<rect x="242.142" y="3.88013" width="118.506" height="35.1265" rx="2.78162" stroke="#1E293B" stroke-width="1.30388"/>
<path d="M265.473 26.4434V16.6434H266.355V26.4434H265.473ZM273.52 22.2574C273.52 20.6474 272.666 20.0874 271.644 20.0874C270.678 20.0874 269.348 20.6474 269.348 22.8174V26.4434H268.48V19.4014H269.348V20.6474C269.964 19.5834 271.028 19.2614 271.784 19.2614C273.268 19.2614 274.388 20.1994 274.388 21.9634V26.4434H273.52V22.2574ZM279.434 26.4434C278.048 26.4434 277.236 25.5474 277.236 24.2454V20.1854H275.878V19.4014H277.236V17.5814H278.104V19.4014H280.064V20.1854H278.104V24.2454C278.104 25.0294 278.538 25.6454 279.434 25.6454C279.7 25.6454 279.952 25.6174 280.204 25.4774V26.3034C279.952 26.4154 279.7 26.4434 279.434 26.4434ZM284.905 26.5834C283.085 26.5834 281.517 25.2814 281.517 22.9154C281.517 20.5634 283.057 19.2614 284.821 19.2614C286.599 19.2614 288.125 20.5634 288.125 22.8734V23.1254H282.399C282.483 24.8194 283.505 25.7854 284.905 25.7854C285.801 25.7854 286.543 25.4494 286.963 24.6794H287.971C287.397 25.9814 286.207 26.5834 284.905 26.5834ZM282.441 22.3554H287.201C287.019 20.9134 286.081 20.0594 284.821 20.0594C283.575 20.0594 282.623 20.8994 282.441 22.3554ZM289.904 26.4434V16.3634H290.772V26.4434H289.904ZM292.885 26.4434V16.3634H293.753V26.4434H292.885ZM295.865 26.4434V19.4014H296.733V26.4434H295.865ZM296.313 18.2394C295.753 18.2394 295.613 18.1414 295.613 17.5954C295.613 17.0354 295.753 16.9374 296.313 16.9374C296.859 16.9374 297.013 17.0354 297.013 17.5954C297.013 18.1414 296.859 18.2394 296.313 18.2394ZM302.107 29.3834C299.993 29.3834 298.663 28.0254 298.747 26.3734L299.755 26.8354C299.783 27.7594 300.609 28.5714 302.107 28.5714C303.409 28.5714 304.585 27.8154 304.585 26.1634V24.9034C303.983 25.8134 303.003 26.3034 301.911 26.3034C300.175 26.3034 298.593 25.0014 298.593 22.7754C298.593 20.5634 300.175 19.2614 301.911 19.2614C303.003 19.2614 303.983 19.7514 304.585 20.6614V19.4014H305.453V26.1634C305.453 28.2774 303.913 29.3834 302.107 29.3834ZM302.051 25.4774C303.465 25.4774 304.599 24.4414 304.599 22.7754C304.599 21.1234 303.465 20.0874 302.051 20.0874C300.623 20.0874 299.503 21.1234 299.503 22.7754C299.503 24.4414 300.623 25.4774 302.051 25.4774ZM310.69 26.5834C308.87 26.5834 307.302 25.2814 307.302 22.9154C307.302 20.5634 308.842 19.2614 310.606 19.2614C312.384 19.2614 313.91 20.5634 313.91 22.8734V23.1254H308.184C308.268 24.8194 309.29 25.7854 310.69 25.7854C311.586 25.7854 312.328 25.4494 312.748 24.6794H313.756C313.182 25.9814 311.992 26.5834 310.69 26.5834ZM308.226 22.3554H312.986C312.804 20.9134 311.866 20.0594 310.606 20.0594C309.36 20.0594 308.408 20.8994 308.226 22.3554ZM320.798 22.2574C320.798 20.6474 319.944 20.0874 318.922 20.0874C317.956 20.0874 316.626 20.6474 316.626 22.8174V26.4434H315.758V19.4014H316.626V20.6474C317.242 19.5834 318.306 19.2614 319.062 19.2614C320.546 19.2614 321.666 20.1994 321.666 21.9634V26.4434H320.798V22.2574ZM326.604 26.5834C324.826 26.5834 323.244 25.2814 323.244 22.9154C323.244 20.5634 324.826 19.2614 326.604 19.2614C327.892 19.2614 329.11 19.9754 329.586 21.3474H328.592C328.228 20.5214 327.5 20.0874 326.604 20.0874C325.218 20.0874 324.154 21.1234 324.154 22.9154C324.154 24.7214 325.218 25.7574 326.604 25.7574C327.71 25.7574 328.564 25.2534 328.914 23.7974L329.754 24.2734C329.306 25.8274 328.074 26.5834 326.604 26.5834ZM334.165 26.5834C332.345 26.5834 330.777 25.2814 330.777 22.9154C330.777 20.5634 332.317 19.2614 334.081 19.2614C335.859 19.2614 337.385 20.5634 337.385 22.8734V23.1254H331.659C331.743 24.8194 332.765 25.7854 334.165 25.7854C335.061 25.7854 335.803 25.4494 336.223 24.6794H337.231C336.657 25.9814 335.467 26.5834 334.165 26.5834ZM331.701 22.3554H336.461C336.279 20.9134 335.341 20.0594 334.081 20.0594C332.835 20.0594 331.883 20.8994 331.701 22.3554Z" fill="#EFEFEF"/>
<rect x="251.947" y="379.142" width="97.506" height="35.1265" rx="2.78162" fill="#0F172A"/>
<rect x="251.947" y="379.142" width="97.506" height="35.1265" rx="2.78162" stroke="#1E293B" stroke-width="1.30388"/>
<path d="M278.54 401.845C276.202 401.845 274.998 400.599 274.732 398.989L275.628 398.513C275.866 399.983 276.678 401.005 278.54 401.005C280.122 401.005 280.934 400.137 280.934 399.073C280.934 396.077 275.012 398.317 275.012 394.425C275.012 392.773 276.384 391.765 278.372 391.765C280.346 391.765 281.522 392.773 281.788 394.369H280.85C280.598 393.333 279.926 392.605 278.372 392.605C276.804 392.605 275.936 393.361 275.936 394.397C275.936 397.365 281.844 395.139 281.844 399.059C281.844 400.711 280.598 401.845 278.54 401.845ZM286.78 401.845C284.96 401.845 283.392 400.543 283.392 398.177C283.392 395.825 284.932 394.523 286.696 394.523C288.474 394.523 290 395.825 290 398.135V398.387H284.274C284.358 400.081 285.38 401.047 286.78 401.047C287.676 401.047 288.418 400.711 288.838 399.941H289.846C289.272 401.243 288.082 401.845 286.78 401.845ZM284.316 397.617H289.076C288.894 396.175 287.956 395.321 286.696 395.321C285.45 395.321 284.498 396.161 284.316 397.617ZM294.942 401.845C293.164 401.845 291.582 400.543 291.582 398.177C291.582 395.825 293.164 394.523 294.942 394.523C296.23 394.523 297.448 395.237 297.924 396.609H296.93C296.566 395.783 295.838 395.349 294.942 395.349C293.556 395.349 292.492 396.385 292.492 398.177C292.492 399.983 293.556 401.019 294.942 401.019C296.048 401.019 296.902 400.515 297.252 399.059L298.092 399.535C297.644 401.089 296.412 401.845 294.942 401.845ZM300.097 398.849C300.097 400.459 300.951 401.019 301.973 401.019C302.939 401.019 304.269 400.459 304.269 398.289V394.663H305.137V401.705H304.269V400.459C303.653 401.523 302.589 401.845 301.833 401.845C300.349 401.845 299.229 400.907 299.229 399.143V394.663H300.097V398.849ZM307.242 401.705V394.663H308.11V396.357C308.782 394.971 310.028 394.509 311.106 394.523V395.475C309.678 395.321 308.11 396.189 308.11 398.919V401.705H307.242ZM312.41 401.705V394.663H313.278V401.705H312.41ZM312.858 393.501C312.298 393.501 312.158 393.403 312.158 392.857C312.158 392.297 312.298 392.199 312.858 392.199C313.404 392.199 313.558 392.297 313.558 392.857C313.558 393.403 313.404 393.501 312.858 393.501ZM318.401 401.705C317.015 401.705 316.203 400.809 316.203 399.507V395.447H314.845V394.663H316.203V392.843H317.071V394.663H319.031V395.447H317.071V399.507C317.071 400.291 317.505 400.907 318.401 400.907C318.667 400.907 318.919 400.879 319.171 400.739V401.565C318.919 401.677 318.667 401.705 318.401 401.705ZM321.632 404.505L322.794 401.621L319.966 394.663H320.876L323.242 400.501L325.58 394.663H326.49L322.542 404.505H321.632Z" fill="#EFEFEF"/>
<rect x="252.021" y="188.601" width="98.7476" height="41.7243" rx="5.56324" fill="#0F172A"/>
<rect x="252.021" y="188.601" width="98.7476" height="41.7243" rx="5.56324" stroke="#10B981" stroke-width="1.30388"/>
<path d="M272.155 207.062C272.105 206.64 271.902 206.312 271.546 206.079C271.191 205.845 270.755 205.729 270.238 205.729C269.86 205.729 269.53 205.79 269.246 205.912C268.966 206.034 268.746 206.202 268.588 206.416C268.432 206.63 268.354 206.873 268.354 207.146C268.354 207.373 268.409 207.569 268.517 207.733C268.628 207.894 268.77 208.029 268.942 208.137C269.114 208.243 269.295 208.33 269.484 208.4C269.673 208.467 269.846 208.521 270.005 208.562L270.871 208.796C271.094 208.854 271.341 208.935 271.613 209.037C271.888 209.14 272.151 209.281 272.401 209.458C272.654 209.633 272.862 209.858 273.026 210.133C273.19 210.408 273.272 210.746 273.272 211.146C273.272 211.607 273.151 212.024 272.909 212.396C272.67 212.768 272.32 213.064 271.859 213.284C271.401 213.503 270.844 213.613 270.188 213.613C269.577 213.613 269.048 213.514 268.6 213.317C268.156 213.12 267.806 212.845 267.55 212.492C267.297 212.139 267.154 211.729 267.121 211.263H268.188C268.215 211.585 268.324 211.852 268.513 212.063C268.704 212.271 268.946 212.427 269.238 212.53C269.532 212.63 269.849 212.68 270.188 212.68C270.582 212.68 270.937 212.616 271.251 212.488C271.565 212.357 271.813 212.177 271.997 211.946C272.18 211.713 272.272 211.441 272.272 211.129C272.272 210.846 272.192 210.615 272.034 210.438C271.876 210.26 271.667 210.115 271.409 210.004C271.151 209.893 270.871 209.796 270.571 209.713L269.521 209.412C268.854 209.221 268.327 208.947 267.938 208.592C267.549 208.236 267.354 207.771 267.354 207.196C267.354 206.718 267.483 206.301 267.742 205.945C268.003 205.587 268.353 205.309 268.792 205.112C269.234 204.912 269.727 204.812 270.271 204.812C270.821 204.812 271.31 204.91 271.738 205.108C272.166 205.302 272.505 205.569 272.755 205.908C273.008 206.247 273.141 206.632 273.155 207.062H272.155ZM282.172 209.196C282.172 210.096 282.009 210.874 281.684 211.529C281.359 212.185 280.913 212.691 280.347 213.046C279.78 213.402 279.133 213.58 278.405 213.58C277.677 213.58 277.03 213.402 276.463 213.046C275.896 212.691 275.45 212.185 275.125 211.529C274.8 210.874 274.638 210.096 274.638 209.196C274.638 208.296 274.8 207.518 275.125 206.862C275.45 206.206 275.896 205.701 276.463 205.345C277.03 204.99 277.677 204.812 278.405 204.812C279.133 204.812 279.78 204.99 280.347 205.345C280.913 205.701 281.359 206.206 281.684 206.862C282.009 207.518 282.172 208.296 282.172 209.196ZM281.172 209.196C281.172 208.457 281.048 207.833 280.801 207.325C280.556 206.816 280.224 206.432 279.805 206.17C279.388 205.909 278.921 205.779 278.405 205.779C277.888 205.779 277.42 205.909 277 206.17C276.584 206.432 276.252 206.816 276.004 207.325C275.76 207.833 275.638 208.457 275.638 209.196C275.638 209.935 275.76 210.558 276.004 211.067C276.252 211.575 276.584 211.96 277 212.221C277.42 212.482 277.888 212.613 278.405 212.613C278.921 212.613 279.388 212.482 279.805 212.221C280.224 211.96 280.556 211.575 280.801 211.067C281.048 210.558 281.172 209.935 281.172 209.196ZM283.859 204.929L286.392 212.113H286.492L289.026 204.929H290.109L286.976 213.463H285.909L282.775 204.929H283.859ZM292.472 204.929V213.463H291.439V204.929H292.472ZM295.044 204.929L297.245 208.479H297.311L299.512 204.929H300.729L298.045 209.196L300.729 213.463H299.512L297.311 209.979H297.245L295.044 213.463H293.828L296.578 209.196L293.828 204.929H295.044ZM312.242 207.596H311.208C311.147 207.298 311.04 207.037 310.887 206.812C310.737 206.587 310.554 206.398 310.337 206.245C310.123 206.09 309.886 205.973 309.624 205.895C309.363 205.818 309.091 205.779 308.808 205.779C308.291 205.779 307.823 205.909 307.403 206.17C306.987 206.432 306.655 206.816 306.407 207.325C306.163 207.833 306.041 208.457 306.041 209.196C306.041 209.935 306.163 210.558 306.407 211.067C306.655 211.575 306.987 211.96 307.403 212.221C307.823 212.482 308.291 212.613 308.808 212.613C309.091 212.613 309.363 212.574 309.624 212.496C309.886 212.418 310.123 212.303 310.337 212.15C310.554 211.995 310.737 211.804 310.887 211.579C311.04 211.352 311.147 211.09 311.208 210.796H312.242C312.164 211.232 312.022 211.622 311.816 211.967C311.611 212.311 311.355 212.605 311.05 212.846C310.744 213.085 310.401 213.267 310.02 213.392C309.643 213.517 309.238 213.58 308.808 213.58C308.08 213.58 307.433 213.402 306.866 213.046C306.299 212.691 305.853 212.185 305.528 211.529C305.203 210.874 305.041 210.096 305.041 209.196C305.041 208.296 305.203 207.518 305.528 206.862C305.853 206.206 306.299 205.701 306.866 205.345C307.433 204.99 308.08 204.812 308.808 204.812C309.238 204.812 309.643 204.874 310.02 204.999C310.401 205.124 310.744 205.308 311.05 205.549C311.355 205.788 311.611 206.08 311.816 206.425C312.022 206.766 312.164 207.157 312.242 207.596ZM321.112 209.196C321.112 210.096 320.95 210.874 320.625 211.529C320.3 212.185 319.854 212.691 319.287 213.046C318.72 213.402 318.073 213.58 317.345 213.58C316.617 213.58 315.97 213.402 315.403 213.046C314.837 212.691 314.391 212.185 314.066 211.529C313.741 210.874 313.578 210.096 313.578 209.196C313.578 208.296 313.741 207.518 314.066 206.862C314.391 206.206 314.837 205.701 315.403 205.345C315.97 204.99 316.617 204.812 317.345 204.812C318.073 204.812 318.72 204.99 319.287 205.345C319.854 205.701 320.3 206.206 320.625 206.862C320.95 207.518 321.112 208.296 321.112 209.196ZM320.112 209.196C320.112 208.457 319.989 207.833 319.741 207.325C319.497 206.816 319.165 206.432 318.745 206.17C318.329 205.909 317.862 205.779 317.345 205.779C316.829 205.779 316.36 205.909 315.941 206.17C315.524 206.432 315.192 206.816 314.945 207.325C314.701 207.833 314.578 208.457 314.578 209.196C314.578 209.935 314.701 210.558 314.945 211.067C315.192 211.575 315.524 211.96 315.941 212.221C316.36 212.482 316.829 212.613 317.345 212.613C317.862 212.613 318.329 212.482 318.745 212.221C319.165 211.96 319.497 211.575 319.741 211.067C319.989 210.558 320.112 209.935 320.112 209.196ZM322.85 213.463V204.929H325.734C326.401 204.929 326.948 205.042 327.376 205.27C327.804 205.495 328.12 205.805 328.326 206.2C328.532 206.594 328.634 207.043 328.634 207.546C328.634 208.048 328.532 208.494 328.326 208.883C328.12 209.272 327.805 209.578 327.38 209.8C326.955 210.019 326.412 210.129 325.751 210.129H323.417V209.196H325.717C326.173 209.196 326.54 209.129 326.817 208.996C327.098 208.862 327.301 208.673 327.426 208.429C327.554 208.182 327.618 207.887 327.618 207.546C327.618 207.204 327.554 206.905 327.426 206.65C327.298 206.394 327.094 206.197 326.813 206.058C326.533 205.916 326.162 205.845 325.701 205.845H323.884V213.463H322.85ZM326.867 209.629L328.968 213.463H327.768L325.701 209.629H326.867ZM330.356 213.463V204.929H335.507V205.845H331.39V208.729H335.24V209.646H331.39V212.546H335.574V213.463H330.356Z" fill="#ECFDF5"/>
</svg>
