<svg width="620" height="417" viewBox="0 0 620 417" fill="none" xmlns="http://www.w3.org/2000/svg">
<path d="M301.284 378.966C394.899 378.966 470.788 303.076 470.788 209.462C470.788 115.847 394.899 39.9575 301.284 39.9575C207.67 39.9575 131.78 115.847 131.78 209.462C131.78 303.076 207.67 378.966 301.284 378.966Z" stroke="#1E293B" stroke-width="1.30388"/>
<path d="M301.284 313.773C358.894 313.773 405.595 267.071 405.595 209.462C405.595 151.853 358.894 105.151 301.284 105.151C243.675 105.151 196.974 151.853 196.974 209.462C196.974 267.071 243.675 313.773 301.284 313.773Z" stroke="#1E293B" stroke-width="1.30388"/>
<path d="M301.284 378.966C394.899 378.966 470.788 303.076 470.788 209.462C470.788 115.847 394.899 39.9575 301.284 39.9575C207.67 39.9575 131.78 115.847 131.78 209.462C131.78 303.076 207.67 378.966 301.284 378.966Z" fill="url(#paint0_radial_309_916)"/>
<defs>
<radialGradient id="paint0_radial_309_916" cx="0" cy="0" r="1" gradientUnits="userSpaceOnUse" gradientTransform="translate(301.284 209.462) scale(169.504)">
<stop stop-color="#10B981" stop-opacity="0.4"/>
<stop offset="1" stop-color="#10B981" stop-opacity="0"/>
</radialGradient>
</defs>
</svg>
