<svg width="646" height="446" viewBox="0 0 646 446" fill="none" xmlns="http://www.w3.org/2000/svg">
<g clip-path="url(#clip0_181_713)">
<line x1="313.177" y1="205.773" x2="313.177" y2="599.373" stroke="#10B981" stroke-opacity="0.35" stroke-width="1.39081" stroke-dasharray="5.22 10.43"/>
</g>
<g clip-path="url(#clip1_181_713)">
<line x1="311.614" y1="230.808" x2="311.614" y2="-162.792" stroke="#10B981" stroke-opacity="0.35" stroke-width="1.39081" stroke-dasharray="5.22 10.43"/>
</g>
<g clip-path="url(#clip2_181_713)">
<line x1="341.735" y1="240.998" x2="695.183" y2="414.189" stroke="#10B981" stroke-opacity="0.35" stroke-width="1.39081" stroke-dasharray="5.22 10.43"/>
</g>
<g clip-path="url(#clip3_181_713)">
<line x1="285.768" y1="217.474" x2="-55.0994" y2="20.6744" stroke="#10B981" stroke-opacity="0.35" stroke-width="1.39081" stroke-dasharray="5.22 10.43"/>
</g>
<g clip-path="url(#clip4_181_713)">
<line x1="343.652" y1="214.748" x2="698.826" y2="45.1255" stroke="#10B981" stroke-opacity="0.35" stroke-width="1.39081" stroke-dasharray="5.22 10.43"/>
</g>
<g clip-path="url(#clip5_181_713)">
<line x1="283.459" y1="229.274" x2="-57.4081" y2="426.074" stroke="#10B981" stroke-opacity="0.35" stroke-width="1.39081" stroke-dasharray="5.22 10.43"/>
</g>
<path d="M312.284 391.966C405.899 391.966 481.788 316.076 481.788 222.462C481.788 128.847 405.899 52.9575 312.284 52.9575C218.67 52.9575 142.78 128.847 142.78 222.462C142.78 316.076 218.67 391.966 312.284 391.966Z" stroke="#1E293B" stroke-width="1.30388"/>
<path d="M312.284 326.773C369.894 326.773 416.595 280.071 416.595 222.462C416.595 164.853 369.894 118.151 312.284 118.151C254.675 118.151 207.974 164.853 207.974 222.462C207.974 280.071 254.675 326.773 312.284 326.773Z" stroke="#1E293B" stroke-width="1.30388"/>
<path d="M312.284 391.966C405.899 391.966 481.788 316.076 481.788 222.462C481.788 128.847 405.899 52.9575 312.284 52.9575C218.67 52.9575 142.78 128.847 142.78 222.462C142.78 316.076 218.67 391.966 312.284 391.966Z" fill="url(#paint0_radial_181_713)"/>
<rect x="41.0776" y="92.074" width="93.506" height="35.1265" rx="2.78162" fill="#0F172A"/>
<rect x="41.0776" y="92.074" width="93.506" height="35.1265" rx="2.78162" stroke="#1E293B" stroke-width="1.30388"/>
<path d="M68.6506 114.777C66.1586 114.777 64.1286 112.845 64.1286 109.737C64.1286 106.629 66.1586 104.697 68.6506 104.697C70.4986 104.697 71.9966 105.691 72.6266 107.343H71.6186C71.0446 106.223 69.9946 105.551 68.6506 105.551C66.6486 105.551 65.0526 107.189 65.0526 109.737C65.0526 112.285 66.6486 113.923 68.6506 113.923C70.2326 113.923 71.3946 113.181 71.9826 111.445L72.8506 111.935C72.2066 113.727 70.6526 114.777 68.6506 114.777ZM77.376 114.777C75.556 114.777 73.904 113.475 73.904 111.109C73.904 108.757 75.556 107.455 77.376 107.455C79.182 107.455 80.848 108.757 80.848 111.109C80.848 113.475 79.182 114.777 77.376 114.777ZM77.376 113.951C78.79 113.951 79.938 112.915 79.938 111.109C79.938 109.317 78.79 108.281 77.376 108.281C75.962 108.281 74.814 109.317 74.814 111.109C74.814 112.915 75.962 113.951 77.376 113.951ZM87.7409 110.451C87.7409 108.841 86.8869 108.281 85.8649 108.281C84.8989 108.281 83.5689 108.841 83.5689 111.011V114.637H82.7009V107.595H83.5689V108.841C84.1849 107.777 85.2489 107.455 86.0049 107.455C87.4889 107.455 88.6089 108.393 88.6089 110.157V114.637H87.7409V110.451ZM93.6546 114.637C92.2686 114.637 91.4566 113.741 91.4566 112.439V108.379H90.0986V107.595H91.4566V105.775H92.3246V107.595H94.2846V108.379H92.3246V112.439C92.3246 113.223 92.7586 113.839 93.6546 113.839C93.9206 113.839 94.1726 113.811 94.4246 113.671V114.497C94.1726 114.609 93.9206 114.637 93.6546 114.637ZM96.1267 114.637V107.595H96.9947V109.289C97.6667 107.903 98.9127 107.441 99.9907 107.455V108.407C98.5627 108.253 96.9947 109.121 96.9947 111.851V114.637H96.1267ZM104.446 114.777C102.626 114.777 100.974 113.475 100.974 111.109C100.974 108.757 102.626 107.455 104.446 107.455C106.252 107.455 107.918 108.757 107.918 111.109C107.918 113.475 106.252 114.777 104.446 114.777ZM104.446 113.951C105.86 113.951 107.008 112.915 107.008 111.109C107.008 109.317 105.86 108.281 104.446 108.281C103.032 108.281 101.884 109.317 101.884 111.109C101.884 112.915 103.032 113.951 104.446 113.951ZM109.771 114.637V104.557H110.639V114.637H109.771Z" fill="#EFEFEF"/>
<rect x="510.474" y="92.074" width="120.506" height="35.1265" rx="2.78162" fill="#0F172A"/>
<rect x="510.474" y="92.074" width="120.506" height="35.1265" rx="2.78162" stroke="#1E293B" stroke-width="1.30388"/>
<path d="M540.875 114.637L539.559 111.319H535.219L533.903 114.637H532.979L536.885 104.837H537.921L541.827 114.637H540.875ZM535.541 110.507H539.237L537.389 105.845L535.541 110.507ZM543.502 111.781C543.502 113.391 544.356 113.951 545.378 113.951C546.344 113.951 547.674 113.391 547.674 111.221V107.595H548.542V114.637H547.674V113.391C547.058 114.455 545.994 114.777 545.238 114.777C543.754 114.777 542.634 113.839 542.634 112.075V107.595H543.502V111.781ZM553.672 114.637C552.286 114.637 551.474 113.741 551.474 112.439V108.379H550.116V107.595H551.474V105.775H552.342V107.595H554.302V108.379H552.342V112.439C552.342 113.223 552.776 113.839 553.672 113.839C553.938 113.839 554.19 113.811 554.442 113.671V114.497C554.19 114.609 553.938 114.637 553.672 114.637ZM559.227 114.777C557.407 114.777 555.755 113.475 555.755 111.109C555.755 108.757 557.407 107.455 559.227 107.455C561.033 107.455 562.699 108.757 562.699 111.109C562.699 113.475 561.033 114.777 559.227 114.777ZM559.227 113.951C560.641 113.951 561.789 112.915 561.789 111.109C561.789 109.317 560.641 108.281 559.227 108.281C557.813 108.281 556.665 109.317 556.665 111.109C556.665 112.915 557.813 113.951 559.227 113.951ZM569.186 110.451C569.186 108.841 568.402 108.281 567.506 108.281C566.68 108.281 565.42 108.841 565.42 111.011V114.637H564.552V107.595H565.42V108.785C566.008 107.763 566.988 107.455 567.646 107.455C568.654 107.455 569.508 107.987 569.872 108.995C570.446 107.805 571.524 107.455 572.266 107.455C573.624 107.455 574.688 108.393 574.688 110.157V114.637H573.82V110.451C573.82 108.841 573.022 108.281 572.126 108.281C571.3 108.281 570.054 108.841 570.054 111.011V114.637H569.186V110.451ZM578.435 114.777C577.189 114.777 576.167 114.175 576.167 112.803C576.167 111.683 577.021 111.025 578.715 110.731L581.123 110.297V109.905C581.123 108.953 580.367 108.267 579.205 108.267C578.113 108.267 577.217 108.953 577.161 109.905L576.167 110.367C576.055 108.673 577.469 107.455 579.205 107.455C580.829 107.455 581.991 108.407 581.991 109.877V114.637H581.123V113.251C580.465 114.441 579.289 114.777 578.435 114.777ZM577.077 112.775C577.077 113.643 577.763 113.979 578.547 113.979C579.597 113.979 581.123 113.391 581.123 111.109V111.067L578.855 111.473C577.637 111.697 577.077 112.089 577.077 112.775ZM587.031 114.637C585.645 114.637 584.833 113.741 584.833 112.439V108.379H583.475V107.595H584.833V105.775H585.701V107.595H587.661V108.379H585.701V112.439C585.701 113.223 586.135 113.839 587.031 113.839C587.297 113.839 587.549 113.811 587.801 113.671V114.497C587.549 114.609 587.297 114.637 587.031 114.637ZM589.489 114.637V107.595H590.357V114.637H589.489ZM589.937 106.433C589.377 106.433 589.237 106.335 589.237 105.789C589.237 105.229 589.377 105.131 589.937 105.131C590.483 105.131 590.637 105.229 590.637 105.789C590.637 106.335 590.483 106.433 589.937 106.433ZM595.553 114.777C593.733 114.777 592.081 113.475 592.081 111.109C592.081 108.757 593.733 107.455 595.553 107.455C597.359 107.455 599.025 108.757 599.025 111.109C599.025 113.475 597.359 114.777 595.553 114.777ZM595.553 113.951C596.967 113.951 598.115 112.915 598.115 111.109C598.115 109.317 596.967 108.281 595.553 108.281C594.139 108.281 592.991 109.317 592.991 111.109C592.991 112.915 594.139 113.951 595.553 113.951ZM605.918 110.451C605.918 108.841 605.064 108.281 604.042 108.281C603.076 108.281 601.746 108.841 601.746 111.011V114.637H600.878V107.595H601.746V108.841C602.362 107.777 603.426 107.455 604.182 107.455C605.666 107.455 606.786 108.393 606.786 110.157V114.637H605.918V110.451Z" fill="#EFEFEF"/>
<rect x="15" y="326.772" width="121.506" height="35.1265" rx="2.78162" fill="#0F172A"/>
<rect x="15" y="326.772" width="121.506" height="35.1265" rx="2.78162" stroke="#1E293B" stroke-width="1.30388"/>
<path d="M42.573 349.475C40.081 349.475 38.051 347.543 38.051 344.435C38.051 341.327 40.081 339.395 42.573 339.395C44.421 339.395 45.919 340.389 46.549 342.041H45.541C44.967 340.921 43.917 340.249 42.573 340.249C40.571 340.249 38.975 341.887 38.975 344.435C38.975 346.983 40.571 348.621 42.573 348.621C44.155 348.621 45.317 347.879 45.905 346.143L46.773 346.633C46.129 348.425 44.575 349.475 42.573 349.475ZM51.2984 349.475C49.4784 349.475 47.8264 348.173 47.8264 345.807C47.8264 343.455 49.4784 342.153 51.2984 342.153C53.1044 342.153 54.7704 343.455 54.7704 345.807C54.7704 348.173 53.1044 349.475 51.2984 349.475ZM51.2984 348.649C52.7124 348.649 53.8604 347.613 53.8604 345.807C53.8604 344.015 52.7124 342.979 51.2984 342.979C49.8844 342.979 48.7364 344.015 48.7364 345.807C48.7364 347.613 49.8844 348.649 51.2984 348.649ZM61.2573 345.149C61.2573 343.539 60.4733 342.979 59.5773 342.979C58.7513 342.979 57.4913 343.539 57.4913 345.709V349.335H56.6233V342.293H57.4913V343.483C58.0793 342.461 59.0593 342.153 59.7173 342.153C60.7253 342.153 61.5793 342.685 61.9433 343.693C62.5173 342.503 63.5953 342.153 64.3373 342.153C65.6953 342.153 66.7593 343.091 66.7593 344.855V349.335H65.8913V345.149C65.8913 343.539 65.0933 342.979 64.1973 342.979C63.3713 342.979 62.1253 343.539 62.1253 345.709V349.335H61.2573V345.149ZM72.3333 349.475C71.2413 349.475 70.2613 348.985 69.6593 348.047V352.135H68.7913V342.293H69.6593V343.581C70.2613 342.643 71.2413 342.153 72.3333 342.153C74.0693 342.153 75.6513 343.455 75.6513 345.807C75.6513 348.173 74.0693 349.475 72.3333 349.475ZM72.1933 348.649C73.6213 348.649 74.7413 347.613 74.7413 345.807C74.7413 344.015 73.6213 342.979 72.1933 342.979C70.7793 342.979 69.6453 344.015 69.6453 345.807C69.6453 347.613 70.7793 348.649 72.1933 348.649ZM77.5003 349.335V339.255H78.3683V349.335H77.5003ZM80.4807 349.335V342.293H81.3487V349.335H80.4807ZM80.9287 341.131C80.3687 341.131 80.2287 341.033 80.2287 340.487C80.2287 339.927 80.3687 339.829 80.9287 339.829C81.4747 339.829 81.6287 339.927 81.6287 340.487C81.6287 341.033 81.4747 341.131 80.9287 341.131ZM85.6139 349.475C84.3679 349.475 83.3459 348.873 83.3459 347.501C83.3459 346.381 84.1999 345.723 85.8939 345.429L88.3019 344.995V344.603C88.3019 343.651 87.5459 342.965 86.3839 342.965C85.2919 342.965 84.3959 343.651 84.3399 344.603L83.3459 345.065C83.2339 343.371 84.6479 342.153 86.3839 342.153C88.0079 342.153 89.1699 343.105 89.1699 344.575V349.335H88.3019V347.949C87.6439 349.139 86.4679 349.475 85.6139 349.475ZM84.2559 347.473C84.2559 348.341 84.9419 348.677 85.7259 348.677C86.7759 348.677 88.3019 348.089 88.3019 345.807V345.765L86.0339 346.171C84.8159 346.395 84.2559 346.787 84.2559 347.473ZM96.2258 345.149C96.2258 343.539 95.3718 342.979 94.3498 342.979C93.3838 342.979 92.0538 343.539 92.0538 345.709V349.335H91.1858V342.293H92.0538V343.539C92.6698 342.475 93.7338 342.153 94.4898 342.153C95.9738 342.153 97.0938 343.091 97.0938 344.855V349.335H96.2258V345.149ZM102.032 349.475C100.254 349.475 98.6721 348.173 98.6721 345.807C98.6721 343.455 100.254 342.153 102.032 342.153C103.32 342.153 104.538 342.867 105.014 344.239H104.02C103.656 343.413 102.928 342.979 102.032 342.979C100.646 342.979 99.5821 344.015 99.5821 345.807C99.5821 347.613 100.646 348.649 102.032 348.649C103.138 348.649 103.992 348.145 104.342 346.689L105.182 347.165C104.734 348.719 103.502 349.475 102.032 349.475ZM109.593 349.475C107.773 349.475 106.205 348.173 106.205 345.807C106.205 343.455 107.745 342.153 109.509 342.153C111.287 342.153 112.813 343.455 112.813 345.765V346.017H107.087C107.171 347.711 108.193 348.677 109.593 348.677C110.489 348.677 111.231 348.341 111.651 347.571H112.659C112.085 348.873 110.895 349.475 109.593 349.475ZM107.129 345.247H111.889C111.707 343.805 110.769 342.951 109.509 342.951C108.263 342.951 107.311 343.791 107.129 345.247Z" fill="#EFEFEF"/>
<rect x="536.551" y="326.772" width="94.506" height="35.1265" rx="2.78162" fill="#0F172A"/>
<rect x="536.551" y="326.772" width="94.506" height="35.1265" rx="2.78162" stroke="#1E293B" stroke-width="1.30388"/>
<path d="M559.882 349.335V339.535H560.764V349.335H559.882ZM567.929 345.149C567.929 343.539 567.075 342.979 566.053 342.979C565.087 342.979 563.757 343.539 563.757 345.709V349.335H562.889V342.293H563.757V343.539C564.373 342.475 565.437 342.153 566.193 342.153C567.677 342.153 568.797 343.091 568.797 344.855V349.335H567.929V345.149ZM573.297 349.475C571.603 349.475 570.483 348.551 570.315 347.473L571.141 346.997C571.351 348.131 572.149 348.677 573.297 348.677C574.305 348.677 574.991 348.131 574.991 347.361C574.991 345.261 570.483 347.081 570.483 344.211C570.483 343.007 571.533 342.153 573.115 342.153C574.641 342.153 575.663 342.965 575.831 344.225H574.879C574.683 343.385 574.067 342.951 573.115 342.951C572.065 342.951 571.393 343.427 571.393 344.183C571.393 346.171 575.887 344.351 575.887 347.333C575.887 348.537 574.837 349.475 573.297 349.475ZM577.313 349.335V342.293H578.181V349.335H577.313ZM577.761 341.131C577.201 341.131 577.061 341.033 577.061 340.487C577.061 339.927 577.201 339.829 577.761 339.829C578.307 339.829 578.461 339.927 578.461 340.487C578.461 341.033 578.307 341.131 577.761 341.131ZM583.556 352.275C581.442 352.275 580.112 350.917 580.196 349.265L581.204 349.727C581.232 350.651 582.058 351.463 583.556 351.463C584.858 351.463 586.034 350.707 586.034 349.055V347.795C585.432 348.705 584.452 349.195 583.36 349.195C581.624 349.195 580.042 347.893 580.042 345.667C580.042 343.455 581.624 342.153 583.36 342.153C584.452 342.153 585.432 342.643 586.034 343.553V342.293H586.902V349.055C586.902 351.169 585.362 352.275 583.556 352.275ZM583.5 348.369C584.914 348.369 586.048 347.333 586.048 345.667C586.048 344.015 584.914 342.979 583.5 342.979C582.072 342.979 580.952 344.015 580.952 345.667C580.952 347.333 582.072 348.369 583.5 348.369ZM594.179 345.149C594.179 343.539 593.325 342.979 592.303 342.979C591.337 342.979 590.007 343.539 590.007 345.709V349.335H589.139V339.255H590.007V343.525C590.623 342.475 591.673 342.153 592.443 342.153C593.927 342.153 595.047 343.091 595.047 344.855V349.335H594.179V345.149ZM600.093 349.335C598.707 349.335 597.895 348.439 597.895 347.137V343.077H596.537V342.293H597.895V340.473H598.763V342.293H600.723V343.077H598.763V347.137C598.763 347.921 599.197 348.537 600.093 348.537C600.359 348.537 600.611 348.509 600.863 348.369V349.195C600.611 349.307 600.359 349.335 600.093 349.335ZM605.015 349.475C603.321 349.475 602.201 348.551 602.033 347.473L602.859 346.997C603.069 348.131 603.867 348.677 605.015 348.677C606.023 348.677 606.709 348.131 606.709 347.361C606.709 345.261 602.201 347.081 602.201 344.211C602.201 343.007 603.251 342.153 604.833 342.153C606.359 342.153 607.381 342.965 607.549 344.225H606.597C606.401 343.385 605.785 342.951 604.833 342.951C603.783 342.951 603.111 343.427 603.111 344.183C603.111 346.171 607.605 344.351 607.605 347.333C607.605 348.537 606.555 349.475 605.015 349.475Z" fill="#EFEFEF"/>
<rect x="253.142" y="16.8801" width="118.506" height="35.1265" rx="2.78162" fill="#0F172A"/>
<rect x="253.142" y="16.8801" width="118.506" height="35.1265" rx="2.78162" stroke="#1E293B" stroke-width="1.30388"/>
<path d="M276.473 39.4434V29.6434H277.355V39.4434H276.473ZM284.52 35.2574C284.52 33.6474 283.666 33.0874 282.644 33.0874C281.678 33.0874 280.348 33.6474 280.348 35.8174V39.4434H279.48V32.4014H280.348V33.6474C280.964 32.5834 282.028 32.2614 282.784 32.2614C284.268 32.2614 285.388 33.1994 285.388 34.9634V39.4434H284.52V35.2574ZM290.434 39.4434C289.048 39.4434 288.236 38.5474 288.236 37.2454V33.1854H286.878V32.4014H288.236V30.5814H289.104V32.4014H291.064V33.1854H289.104V37.2454C289.104 38.0294 289.538 38.6454 290.434 38.6454C290.7 38.6454 290.952 38.6174 291.204 38.4774V39.3034C290.952 39.4154 290.7 39.4434 290.434 39.4434ZM295.905 39.5834C294.085 39.5834 292.517 38.2814 292.517 35.9154C292.517 33.5634 294.057 32.2614 295.821 32.2614C297.599 32.2614 299.125 33.5634 299.125 35.8734V36.1254H293.399C293.483 37.8194 294.505 38.7854 295.905 38.7854C296.801 38.7854 297.543 38.4494 297.963 37.6794H298.971C298.397 38.9814 297.207 39.5834 295.905 39.5834ZM293.441 35.3554H298.201C298.019 33.9134 297.081 33.0594 295.821 33.0594C294.575 33.0594 293.623 33.8994 293.441 35.3554ZM300.904 39.4434V29.3634H301.772V39.4434H300.904ZM303.884 39.4434V29.3634H304.752V39.4434H303.884ZM306.865 39.4434V32.4014H307.733V39.4434H306.865ZM307.313 31.2394C306.753 31.2394 306.613 31.1414 306.613 30.5954C306.613 30.0354 306.753 29.9374 307.313 29.9374C307.859 29.9374 308.013 30.0354 308.013 30.5954C308.013 31.1414 307.859 31.2394 307.313 31.2394ZM313.107 42.3834C310.993 42.3834 309.663 41.0254 309.747 39.3734L310.755 39.8354C310.783 40.7594 311.609 41.5714 313.107 41.5714C314.409 41.5714 315.585 40.8154 315.585 39.1634V37.9034C314.983 38.8134 314.003 39.3034 312.911 39.3034C311.175 39.3034 309.593 38.0014 309.593 35.7754C309.593 33.5634 311.175 32.2614 312.911 32.2614C314.003 32.2614 314.983 32.7514 315.585 33.6614V32.4014H316.453V39.1634C316.453 41.2774 314.913 42.3834 313.107 42.3834ZM313.051 38.4774C314.465 38.4774 315.599 37.4414 315.599 35.7754C315.599 34.1234 314.465 33.0874 313.051 33.0874C311.623 33.0874 310.503 34.1234 310.503 35.7754C310.503 37.4414 311.623 38.4774 313.051 38.4774ZM321.69 39.5834C319.87 39.5834 318.302 38.2814 318.302 35.9154C318.302 33.5634 319.842 32.2614 321.606 32.2614C323.384 32.2614 324.91 33.5634 324.91 35.8734V36.1254H319.184C319.268 37.8194 320.29 38.7854 321.69 38.7854C322.586 38.7854 323.328 38.4494 323.748 37.6794H324.756C324.182 38.9814 322.992 39.5834 321.69 39.5834ZM319.226 35.3554H323.986C323.804 33.9134 322.866 33.0594 321.606 33.0594C320.36 33.0594 319.408 33.8994 319.226 35.3554ZM331.798 35.2574C331.798 33.6474 330.944 33.0874 329.922 33.0874C328.956 33.0874 327.626 33.6474 327.626 35.8174V39.4434H326.758V32.4014H327.626V33.6474C328.242 32.5834 329.306 32.2614 330.062 32.2614C331.546 32.2614 332.666 33.1994 332.666 34.9634V39.4434H331.798V35.2574ZM337.604 39.5834C335.826 39.5834 334.244 38.2814 334.244 35.9154C334.244 33.5634 335.826 32.2614 337.604 32.2614C338.892 32.2614 340.11 32.9754 340.586 34.3474H339.592C339.228 33.5214 338.5 33.0874 337.604 33.0874C336.218 33.0874 335.154 34.1234 335.154 35.9154C335.154 37.7214 336.218 38.7574 337.604 38.7574C338.71 38.7574 339.564 38.2534 339.914 36.7974L340.754 37.2734C340.306 38.8274 339.074 39.5834 337.604 39.5834ZM345.165 39.5834C343.345 39.5834 341.777 38.2814 341.777 35.9154C341.777 33.5634 343.317 32.2614 345.081 32.2614C346.859 32.2614 348.385 33.5634 348.385 35.8734V36.1254H342.659C342.743 37.8194 343.765 38.7854 345.165 38.7854C346.061 38.7854 346.803 38.4494 347.223 37.6794H348.231C347.657 38.9814 346.467 39.5834 345.165 39.5834ZM342.701 35.3554H347.461C347.279 33.9134 346.341 33.0594 345.081 33.0594C343.835 33.0594 342.883 33.8994 342.701 35.3554Z" fill="#EFEFEF"/>
<rect x="262.947" y="394.142" width="97.506" height="35.1265" rx="2.78162" fill="#0F172A"/>
<rect x="262.947" y="394.142" width="97.506" height="35.1265" rx="2.78162" stroke="#1E293B" stroke-width="1.30388"/>
<path d="M289.54 416.845C287.202 416.845 285.998 415.599 285.732 413.989L286.628 413.513C286.866 414.983 287.678 416.005 289.54 416.005C291.122 416.005 291.934 415.137 291.934 414.073C291.934 411.077 286.012 413.317 286.012 409.425C286.012 407.773 287.384 406.765 289.372 406.765C291.346 406.765 292.522 407.773 292.788 409.369H291.85C291.598 408.333 290.926 407.605 289.372 407.605C287.804 407.605 286.936 408.361 286.936 409.397C286.936 412.365 292.844 410.139 292.844 414.059C292.844 415.711 291.598 416.845 289.54 416.845ZM297.78 416.845C295.96 416.845 294.392 415.543 294.392 413.177C294.392 410.825 295.932 409.523 297.696 409.523C299.474 409.523 301 410.825 301 413.135V413.387H295.274C295.358 415.081 296.38 416.047 297.78 416.047C298.676 416.047 299.418 415.711 299.838 414.941H300.846C300.272 416.243 299.082 416.845 297.78 416.845ZM295.316 412.617H300.076C299.894 411.175 298.956 410.321 297.696 410.321C296.45 410.321 295.498 411.161 295.316 412.617ZM305.942 416.845C304.164 416.845 302.582 415.543 302.582 413.177C302.582 410.825 304.164 409.523 305.942 409.523C307.23 409.523 308.448 410.237 308.924 411.609H307.93C307.566 410.783 306.838 410.349 305.942 410.349C304.556 410.349 303.492 411.385 303.492 413.177C303.492 414.983 304.556 416.019 305.942 416.019C307.048 416.019 307.902 415.515 308.252 414.059L309.092 414.535C308.644 416.089 307.412 416.845 305.942 416.845ZM311.097 413.849C311.097 415.459 311.951 416.019 312.973 416.019C313.939 416.019 315.269 415.459 315.269 413.289V409.663H316.137V416.705H315.269V415.459C314.653 416.523 313.589 416.845 312.833 416.845C311.349 416.845 310.229 415.907 310.229 414.143V409.663H311.097V413.849ZM318.242 416.705V409.663H319.11V411.357C319.782 409.971 321.028 409.509 322.106 409.523V410.475C320.678 410.321 319.11 411.189 319.11 413.919V416.705H318.242ZM323.41 416.705V409.663H324.278V416.705H323.41ZM323.858 408.501C323.298 408.501 323.158 408.403 323.158 407.857C323.158 407.297 323.298 407.199 323.858 407.199C324.404 407.199 324.558 407.297 324.558 407.857C324.558 408.403 324.404 408.501 323.858 408.501ZM329.401 416.705C328.015 416.705 327.203 415.809 327.203 414.507V410.447H325.845V409.663H327.203V407.843H328.071V409.663H330.031V410.447H328.071V414.507C328.071 415.291 328.505 415.907 329.401 415.907C329.667 415.907 329.919 415.879 330.171 415.739V416.565C329.919 416.677 329.667 416.705 329.401 416.705ZM332.632 419.505L333.794 416.621L330.966 409.663H331.876L334.242 415.501L336.58 409.663H337.49L333.542 419.505H332.632Z" fill="#EFEFEF"/>
<rect x="263.021" y="201.601" width="98.7476" height="41.7243" rx="5.56324" fill="#0F172A"/>
<rect x="263.021" y="201.601" width="98.7476" height="41.7243" rx="5.56324" stroke="#10B981" stroke-width="1.30388"/>
<path d="M283.155 220.062C283.105 219.64 282.902 219.312 282.546 219.079C282.191 218.845 281.755 218.729 281.238 218.729C280.86 218.729 280.53 218.79 280.246 218.912C279.966 219.034 279.746 219.202 279.588 219.416C279.432 219.63 279.354 219.873 279.354 220.146C279.354 220.373 279.409 220.569 279.517 220.733C279.628 220.894 279.77 221.029 279.942 221.137C280.114 221.243 280.295 221.33 280.484 221.4C280.673 221.467 280.846 221.521 281.005 221.562L281.871 221.796C282.094 221.854 282.341 221.935 282.613 222.037C282.888 222.14 283.151 222.281 283.401 222.458C283.654 222.633 283.862 222.858 284.026 223.133C284.19 223.408 284.272 223.746 284.272 224.146C284.272 224.607 284.151 225.024 283.909 225.396C283.67 225.768 283.32 226.064 282.859 226.284C282.401 226.503 281.844 226.613 281.188 226.613C280.577 226.613 280.048 226.514 279.6 226.317C279.156 226.12 278.806 225.845 278.55 225.492C278.297 225.139 278.154 224.729 278.121 224.263H279.188C279.215 224.585 279.324 224.852 279.513 225.063C279.704 225.271 279.946 225.427 280.238 225.53C280.532 225.63 280.849 225.68 281.188 225.68C281.582 225.68 281.937 225.616 282.251 225.488C282.565 225.357 282.813 225.177 282.997 224.946C283.18 224.713 283.272 224.441 283.272 224.129C283.272 223.846 283.192 223.615 283.034 223.438C282.876 223.26 282.667 223.115 282.409 223.004C282.151 222.893 281.871 222.796 281.571 222.713L280.521 222.412C279.854 222.221 279.327 221.947 278.938 221.592C278.549 221.236 278.354 220.771 278.354 220.196C278.354 219.718 278.483 219.301 278.742 218.945C279.003 218.587 279.353 218.309 279.792 218.112C280.234 217.912 280.727 217.812 281.271 217.812C281.821 217.812 282.31 217.91 282.738 218.108C283.166 218.302 283.505 218.569 283.755 218.908C284.008 219.247 284.141 219.632 284.155 220.062H283.155ZM293.172 222.196C293.172 223.096 293.009 223.874 292.684 224.529C292.359 225.185 291.913 225.691 291.347 226.046C290.78 226.402 290.133 226.58 289.405 226.58C288.677 226.58 288.03 226.402 287.463 226.046C286.896 225.691 286.45 225.185 286.125 224.529C285.8 223.874 285.638 223.096 285.638 222.196C285.638 221.296 285.8 220.518 286.125 219.862C286.45 219.206 286.896 218.701 287.463 218.345C288.03 217.99 288.677 217.812 289.405 217.812C290.133 217.812 290.78 217.99 291.347 218.345C291.913 218.701 292.359 219.206 292.684 219.862C293.009 220.518 293.172 221.296 293.172 222.196ZM292.172 222.196C292.172 221.457 292.048 220.833 291.801 220.325C291.556 219.816 291.224 219.432 290.805 219.17C290.388 218.909 289.921 218.779 289.405 218.779C288.888 218.779 288.42 218.909 288 219.17C287.584 219.432 287.252 219.816 287.004 220.325C286.76 220.833 286.638 221.457 286.638 222.196C286.638 222.935 286.76 223.558 287.004 224.067C287.252 224.575 287.584 224.96 288 225.221C288.42 225.482 288.888 225.613 289.405 225.613C289.921 225.613 290.388 225.482 290.805 225.221C291.224 224.96 291.556 224.575 291.801 224.067C292.048 223.558 292.172 222.935 292.172 222.196ZM294.859 217.929L297.392 225.113H297.492L300.026 217.929H301.109L297.976 226.463H296.909L293.775 217.929H294.859ZM303.472 217.929V226.463H302.439V217.929H303.472ZM306.044 217.929L308.245 221.479H308.311L310.512 217.929H311.729L309.045 222.196L311.729 226.463H310.512L308.311 222.979H308.245L306.044 226.463H304.828L307.578 222.196L304.828 217.929H306.044ZM323.242 220.596H322.208C322.147 220.298 322.04 220.037 321.887 219.812C321.737 219.587 321.554 219.398 321.337 219.245C321.123 219.09 320.886 218.973 320.624 218.895C320.363 218.818 320.091 218.779 319.808 218.779C319.291 218.779 318.823 218.909 318.403 219.17C317.987 219.432 317.655 219.816 317.407 220.325C317.163 220.833 317.041 221.457 317.041 222.196C317.041 222.935 317.163 223.558 317.407 224.067C317.655 224.575 317.987 224.96 318.403 225.221C318.823 225.482 319.291 225.613 319.808 225.613C320.091 225.613 320.363 225.574 320.624 225.496C320.886 225.418 321.123 225.303 321.337 225.15C321.554 224.995 321.737 224.804 321.887 224.579C322.04 224.352 322.147 224.09 322.208 223.796H323.242C323.164 224.232 323.022 224.622 322.816 224.967C322.611 225.311 322.355 225.605 322.05 225.846C321.744 226.085 321.401 226.267 321.02 226.392C320.643 226.517 320.238 226.58 319.808 226.58C319.08 226.58 318.433 226.402 317.866 226.046C317.299 225.691 316.853 225.185 316.528 224.529C316.203 223.874 316.041 223.096 316.041 222.196C316.041 221.296 316.203 220.518 316.528 219.862C316.853 219.206 317.299 218.701 317.866 218.345C318.433 217.99 319.08 217.812 319.808 217.812C320.238 217.812 320.643 217.874 321.02 217.999C321.401 218.124 321.744 218.308 322.05 218.549C322.355 218.788 322.611 219.08 322.816 219.425C323.022 219.766 323.164 220.157 323.242 220.596ZM332.112 222.196C332.112 223.096 331.95 223.874 331.625 224.529C331.3 225.185 330.854 225.691 330.287 226.046C329.72 226.402 329.073 226.58 328.345 226.58C327.617 226.58 326.97 226.402 326.403 226.046C325.837 225.691 325.391 225.185 325.066 224.529C324.741 223.874 324.578 223.096 324.578 222.196C324.578 221.296 324.741 220.518 325.066 219.862C325.391 219.206 325.837 218.701 326.403 218.345C326.97 217.99 327.617 217.812 328.345 217.812C329.073 217.812 329.72 217.99 330.287 218.345C330.854 218.701 331.3 219.206 331.625 219.862C331.95 220.518 332.112 221.296 332.112 222.196ZM331.112 222.196C331.112 221.457 330.989 220.833 330.741 220.325C330.497 219.816 330.165 219.432 329.745 219.17C329.329 218.909 328.862 218.779 328.345 218.779C327.829 218.779 327.36 218.909 326.941 219.17C326.524 219.432 326.192 219.816 325.945 220.325C325.701 220.833 325.578 221.457 325.578 222.196C325.578 222.935 325.701 223.558 325.945 224.067C326.192 224.575 326.524 224.96 326.941 225.221C327.36 225.482 327.829 225.613 328.345 225.613C328.862 225.613 329.329 225.482 329.745 225.221C330.165 224.96 330.497 224.575 330.741 224.067C330.989 223.558 331.112 222.935 331.112 222.196ZM333.85 226.463V217.929H336.734C337.401 217.929 337.948 218.042 338.376 218.27C338.804 218.495 339.12 218.805 339.326 219.2C339.532 219.594 339.634 220.043 339.634 220.546C339.634 221.048 339.532 221.494 339.326 221.883C339.12 222.272 338.805 222.578 338.38 222.8C337.955 223.019 337.412 223.129 336.751 223.129H334.417V222.196H336.717C337.173 222.196 337.54 222.129 337.817 221.996C338.098 221.862 338.301 221.673 338.426 221.429C338.554 221.182 338.618 220.887 338.618 220.546C338.618 220.204 338.554 219.905 338.426 219.65C338.298 219.394 338.094 219.197 337.813 219.058C337.533 218.916 337.162 218.845 336.701 218.845H334.884V226.463H333.85ZM337.867 222.629L339.968 226.463H338.768L336.701 222.629H337.867ZM341.356 226.463V217.929H346.507V218.845H342.39V221.729H346.24V222.646H342.39V225.546H346.574V226.463H341.356Z" fill="#ECFDF5"/>
<defs>
<radialGradient id="paint0_radial_181_713" cx="0" cy="0" r="1" gradientUnits="userSpaceOnUse" gradientTransform="translate(312.284 222.462) scale(169.504)">
<stop stop-color="#10B981" stop-opacity="0.4"/>
<stop offset="1" stop-color="#10B981" stop-opacity="0"/>
</radialGradient>
<clipPath id="clip0_181_713">
<rect width="201.668" height="4.17244" fill="white" transform="translate(314.481 205.773) rotate(90)"/>
</clipPath>
<clipPath id="clip1_181_713">
<rect width="201.668" height="4.17244" fill="white" transform="translate(310.309 230.808) rotate(-90)"/>
</clipPath>
<clipPath id="clip2_181_713">
<rect width="223.921" height="4.17243" fill="white" transform="translate(342.309 239.826) rotate(26.105)"/>
</clipPath>
<clipPath id="clip3_181_713">
<rect width="223.921" height="4.17243" fill="white" transform="translate(285.115 218.604) rotate(-150)"/>
</clipPath>
<clipPath id="clip4_181_713">
<rect width="223.921" height="4.17243" fill="white" transform="translate(343.09 213.571) rotate(-25.5281)"/>
</clipPath>
<clipPath id="clip5_181_713">
<rect width="223.921" height="4.17243" fill="white" transform="translate(284.111 230.404) rotate(150)"/>
</clipPath>
</defs>
</svg>
