<svg width="40" height="40" viewBox="0 0 40 40" fill="none" xmlns="http://www.w3.org/2000/svg">
<rect x="4.5" y="4.5" width="31" height="31" rx="9.5" fill="#0F172A"/>
<rect x="4.5" y="4.5" width="31" height="31" rx="9.5" stroke="#1E293B"/>
<path d="M25.3333 20.6667C25.3333 24 23 25.6667 20.2266 26.6333C20.0814 26.6825 19.9237 26.6802 19.78 26.6267C17 25.6667 14.6666 24 14.6666 20.6667V16C14.6666 15.8232 14.7369 15.6536 14.8619 15.5286C14.9869 15.4036 15.1565 15.3333 15.3333 15.3333C16.6666 15.3333 18.3333 14.5333 19.4933 13.52C19.6345 13.3993 19.8142 13.333 20 13.333C20.1857 13.333 20.3654 13.3993 20.5066 13.52C21.6733 14.54 23.3333 15.3333 24.6666 15.3333C24.8434 15.3333 25.013 15.4036 25.138 15.5286C25.2631 15.6536 25.3333 15.8232 25.3333 16V20.6667Z" stroke="#34D399" stroke-linecap="round" stroke-linejoin="round"/>
<rect x="31" y="3" width="6" height="6" rx="3" fill="#34D399"/>
</svg>
